<?xml version="1.0" encoding="utf-8"?>
<!-- Generator: Adobe Illustrator 27.9.0, SVG Export Plug-In . SVG Version: 6.00 Build 0)  -->
<svg version="1.1" xmlns="http://www.w3.org/2000/svg" xmlns:xlink="http://www.w3.org/1999/xlink" x="0px" y="0px"
	 viewBox="0 0 1920 284.9" style="enable-background:new 0 0 1920 284.9;" xml:space="preserve">
<style type="text/css">
	.st0{fill:#00B2A9;}
	.st1{fill:#3F000B;}
	.st2{fill:#FDEACF;}
	.st3{fill:#3E000A;}
	.st4{fill:#FFFFFF;}
	.st5{fill:#D9D9D9;filter:url(#Adobe_OpacityMaskFilter);}
	.st6{mask:url(#mask0_4386_3483_00000183948109544966762250000014891456727366884278_);}
	.st7{fill:#46BFB8;}
	.st8{fill:#91268E;}
	.st9{fill:#D9D9D9;filter:url(#Adobe_OpacityMaskFilter_00000169524431849352457900000011531022726529162153_);}
	.st10{mask:url(#mask0_3936_1304_00000149368000659124667840000014629555929348963240_);}
	.st11{fill:#B7D34A;}
</style>
<g id="Layer_1">
</g>
<g id="Layer_2">
	<rect x="0" class="st1" width="1920" height="277.3"/>
	<g>
		<path class="st4" d="M1920,226v58.9H0V226c36,1.5,69.8,13.8,104.3,22.2c34.5,8.5,73.3,12.8,105.4-0.8c27-11.5,44.7-33.8,68.7-49.3
			c24.8-16,56.2-24.2,87.6-25.1c31.4-0.9,62.7,5.4,91.4,16c16.5,6.1,33,13.9,51,14c30.1,0.3,38.9-21.5,40.2-42.4
			C551,124.5,520.1,93,488,68.3c-10.1-7.8-20.8-15.6-26.8-25.9c-6-10.3-6.1-24,3.8-32c11.7-9.5,32.2-6.8,44.5,2.1
			c12.3,8.9,18.4,22.2,24.1,34.9c13.4,30,26.9,60.3,48.2,86.9c21.3,26.6,51.4,49.7,88.4,58.8c16.2,4,46.8,5.7,52.5-12.3
			c3.5-11.2-10.3-24-18.2-31.6c-3.5-3.4-6.6-7.5-6.7-11.9c-0.3-10.7,18.7-14.4,28.3-11.5c11.4,3.4,17.5,14.3,19.5,23.6
			c5,23.7,22.7,45.4,43.8,61.5c21.6,16.5,48.9,14.6,73.3,2.9c18.8-9,35.3-21.5,55.8-27.6c28.2-8.4,55.3-8.4,83.6,0
			c20.4,6.1,36.9,18.6,55.8,27.6c24.5,11.6,51.7,13.6,73.3-2.9c21.1-16.1,38.7-37.7,43.7-61.5c2-9.3,8.1-20.1,19.5-23.6
			c9.7-2.9,28.6,0.8,28.3,11.5c-0.1,4.5-3.2,8.5-6.7,11.9c-7.9,7.6-21.7,20.4-18.2,31.6c5.7,18,36.2,16.3,52.5,12.3
			c36.9-9.1,67-32.1,88.4-58.8c21.3-26.6,34.9-56.9,48.2-86.9c5.7-12.7,11.8-26,24.1-34.9c12.3-8.9,32.8-11.6,44.5-2.1
			c9.8,8,9.8,21.7,3.8,32c-6,10.3-16.7,18.1-26.8,25.9c-32.1,24.6-63,56.1-60.6,92.3c1.4,20.9,10.1,42.7,40.2,42.4
			c18.1-0.2,34.5-7.9,51-14c28.7-10.6,60-16.9,91.4-16c31.4,0.9,62.8,9.1,87.6,25.1c24,15.5,41.7,37.8,68.7,49.3
			c32.1,13.6,70.8,9.3,105.4,0.8C1850.2,239.8,1884,227.5,1920,226z"/>
		<path class="st4" d="M1496,42.2c-5.4,8.3-4.4,23.2,7.2,25.5c12.7,2.6,25.2-12.2,18.8-24C1516.5,33.5,1502.4,32.2,1496,42.2z"/>
		<path class="st4" d="M413.5,55.6c-3.8,5.9-3.1,16.3,5.1,18c9,1.8,17.8-8.6,13.3-16.9C428,49.5,418,48.5,413.5,55.6z"/>
		<path class="st4" d="M1452.2,92.3c-0.1,0.2-0.2,0.4-0.3,0.6c-4.5,11.1,13,17.6,16.9,6.4c1.6-4.4-1-9.8-5.3-11.5
			C1459.4,86.2,1454.2,88.3,1452.2,92.3z"/>
	</g>
</g>
</svg>
