<svg width="1920" height="1080" viewBox="0 0 1920 1080" fill="none" xmlns="http://www.w3.org/2000/svg">
<g clip-path="url(#clip0_1059_343)">
<path opacity="0.4" d="M-213.063 525.87C-192.263 532.89 -170.893 527.91 -156.393 522.86C-135.393 515.54 -123.163 503.82 -106.343 509.42L-112.313 541.03C-113.503 547.32 -109.873 553.54 -103.803 555.58L45.6067 606.02C51.6767 608.07 58.3267 605.33 61.1967 599.6L75.6067 570.84C92.3867 576.58 95.0067 593.31 107.277 611.87C115.747 624.68 129.727 641.58 150.527 648.61C140.447 614.83 197.477 572.46 188.627 535.74C167.817 528.72 146.457 533.69 131.957 538.75C110.957 546.07 98.7267 557.79 81.9067 552.19L87.8767 520.57C89.0667 514.28 85.4367 508.07 79.3667 506.02L-70.0433 455.59C-76.1133 453.54 -82.7633 456.28 -85.6333 462L-100.043 490.77C-116.813 485.03 -119.443 468.29 -131.713 449.74C-140.173 436.93 -154.163 420.02 -174.963 413C-164.883 446.78 -221.913 489.15 -213.063 525.87" fill="white"/>
<path opacity="0.4" d="M1902.33 755.535C1889.26 763.127 1882.14 776.465 1878.17 786.269C1872.42 800.469 1872.93 812.124 1862.4 818.3L1848.77 800.874C1846.05 797.406 1841.19 796.474 1837.38 798.694L1743.47 853.257C1739.66 855.478 1738.06 860.155 1739.71 864.239L1748.05 884.747C1737.46 890.833 1727.62 884.61 1712.45 882.555C1701.99 881.138 1686.89 880.718 1673.82 888.31C1695.87 898.396 1691.89 947.154 1714.9 959.217C1727.97 951.625 1735.1 938.287 1739.07 928.482C1744.82 914.282 1744.31 902.628 1754.83 896.452L1768.47 913.877C1771.19 917.346 1776.04 918.278 1779.86 916.058L1873.76 861.494C1877.58 859.274 1879.18 854.597 1877.53 850.513L1869.19 830.005C1879.77 823.919 1889.62 830.141 1904.78 832.197C1915.25 833.614 1930.34 834.034 1943.42 826.442C1921.37 816.355 1925.35 767.597 1902.33 755.535" fill="white"/>
<path opacity="0.4" d="M231.682 628.553C223.765 638.547 222.291 651.205 222.207 660.124C222.088 673.043 226.099 682.029 219.731 690.126L203.618 680.655C200.409 678.768 196.303 679.533 193.988 682.453L137.096 754.245C134.781 757.165 134.973 761.337 137.542 764.025L150.445 777.55C144.015 785.592 134.353 783.751 121.796 786.814C113.136 788.929 101.141 793.256 93.2243 803.25C113.667 804.372 125.64 843.857 147.452 846.235C155.369 836.24 156.842 823.582 156.926 814.663C157.045 801.744 153.034 792.758 159.403 784.662L175.516 794.132C178.724 796.019 182.831 795.254 185.146 792.335L242.037 720.542C244.352 717.623 244.161 713.451 241.592 710.762L228.689 697.238C235.119 689.195 244.781 691.037 257.338 687.973C265.998 685.858 277.992 681.532 285.909 671.538C265.467 670.415 253.494 630.931 231.682 628.553" fill="white"/>
<path opacity="0.4" d="M1705.09 629.469C1700.7 639.006 1701.98 649.421 1703.65 656.572C1706.07 666.932 1711.02 673.341 1707.5 681.058L1692.77 676.616C1689.84 675.73 1686.7 677.141 1685.42 679.928L1653.87 748.437C1652.58 751.223 1653.55 754.524 1656.13 756.175L1669.08 764.485C1665.5 772.171 1657.41 772.577 1647.96 777.471C1641.44 780.849 1632.69 786.644 1628.3 796.181C1644.87 793.101 1662.13 822.363 1680.05 820.021C1684.44 810.485 1683.15 800.07 1681.49 792.918C1679.07 782.559 1674.11 776.15 1677.63 768.433L1692.37 772.875C1695.3 773.76 1698.44 772.349 1699.72 769.563L1731.27 701.054C1732.55 698.268 1731.59 694.967 1729.01 693.316L1716.06 685.005C1719.64 677.32 1727.72 676.913 1737.17 672.019C1743.69 668.642 1752.45 662.847 1756.84 653.31C1740.26 656.39 1723 627.128 1705.09 629.469" fill="white"/>
<path opacity="0.4" d="M1674.04 524.182C1691.36 533.782 1711.14 532.811 1724.81 530.656C1744.63 527.539 1757.37 519.094 1771.4 526.789L1761.01 553.925C1758.93 559.331 1761.16 565.43 1766.21 568.238L1890.69 637.199C1895.74 639.998 1902.09 638.642 1905.55 634.015L1922.99 610.775C1936.95 618.586 1936.58 633.88 1944.48 652.359C1949.93 665.114 1959.61 682.4 1976.94 692C1973.44 660.343 2030.88 631.889 2028.95 597.818C2011.63 588.218 1991.85 589.189 1978.18 591.344C1958.36 594.461 1945.62 602.906 1931.59 595.211L1941.98 568.075C1944.05 562.669 1941.83 556.57 1936.78 553.761L1812.3 484.801C1807.25 482.002 1800.9 483.358 1797.44 487.985L1780.01 511.225C1766.04 503.414 1766.41 488.11 1758.52 469.641C1753.07 456.886 1743.39 439.6 1726.06 430C1729.56 461.657 1672.12 490.111 1674.05 524.182" fill="white"/>
<path opacity="0.4" d="M0 180.712C8.21583 196.862 23.67 206.252 35.1218 211.628C51.7129 219.419 65.6546 219.548 72.3476 232.56L50.6428 247.796C46.3214 250.83 44.8912 256.593 47.2886 261.304L106.307 377.306C108.704 382.016 114.198 384.24 119.183 382.506L144.222 373.823C150.807 386.897 142.73 398.294 139.278 416.337C136.901 428.792 135.415 446.851 143.625 463C157.119 437.223 215.088 445.091 231 418.288C222.784 402.138 207.33 392.748 195.878 387.372C179.287 379.581 165.345 379.452 158.652 366.44L180.357 351.204C184.679 348.17 186.109 342.407 183.711 337.696L124.693 221.694C122.296 216.984 116.802 214.76 111.817 216.489L86.7781 225.172C80.1982 212.103 88.2751 200.7 91.7271 182.663C94.1039 170.208 95.5906 152.149 87.3748 136C73.8807 161.777 15.9069 153.909 0 180.718" fill="white"/>
</g>
<defs>
<clipPath id="clip0_1059_343">
<rect width="1920" height="1080" fill="white"/>
</clipPath>
</defs>
</svg>
