<svg viewBox="0 0 1920 357.73" xmlns="http://www.w3.org/2000/svg"><path d="m697.2 208.1c197.6-34 398.53-86.53 600.4-111.33 5.87-.72 11.71-1.39 17.52-2.02 1.9-.2 3.78-.37 5.67-.57 3.89-.4 7.79-.81 11.65-1.16 2.36-.22 4.69-.39 7.04-.59 3.37-.29 6.74-.59 10.09-.85 2.55-.2 5.07-.35 7.6-.52 3.11-.22 6.23-.45 9.32-.64 2.62-.16 5.21-.28 7.82-.42 2.97-.16 5.96-.34 8.91-.47 2.67-.12 5.31-.2 7.96-.3 2.86-.11 5.73-.23 8.57-.32 2.71-.08 5.38-.12 8.08-.17 2.75-.06 5.52-.14 8.26-.17 2.68-.03 5.32-.03 7.98-.04 2.72-.01 5.45-.05 8.16-.04 2.68 0 5.32.06 7.99.09 2.65.03 5.31.04 7.95.09 2.72.05 5.42.15 8.12.23 2.54.07 5.09.12 7.61.22 2.74.1 5.45.24 8.17.36 2.46.11 4.93.2 7.37.33 2.73.15 5.42.33 8.13.5 2.4.15 4.82.28 7.2.45 2.73.19 5.43.42 8.15.64 2.33.19 4.67.35 6.98.55 2.75.24 5.47.52 8.2.79 2.24.22 4.5.42 6.73.65 2.75.29 5.48.62 8.21.93 2.17.25 4.36.48 6.51.75 2.76.34 5.49.72 8.22 1.08 2.1.28 4.21.54 6.3.83 2.77.39 5.5.82 8.25 1.23 2.02.31 4.06.59 6.06.91 2.78.44 5.52.92 8.28 1.39 1.94.33 3.9.64 5.83.98 2.78.49 5.53 1.02 8.29 1.54 1.87.35 3.76.69 5.61 1.05 2.79.55 5.55 1.13 8.31 1.7 1.79.37 3.6.73 5.38 1.11 2.8.6 5.56 1.24 8.34 1.87 1.72.39 3.45.76 5.15 1.16 2.81.66 5.58 1.35 8.36 2.04 1.64.4 3.29.79 4.91 1.21 2.81.72 5.59 1.47 8.38 2.21 1.56.42 3.14.82 4.7 1.25 2.82.77 5.61 1.58 8.4 2.39 1.48.43 2.98.84 4.46 1.27 2.83.83 5.62 1.7 8.42 2.57 1.41.44 2.83.86 4.24 1.3 2.83.89 5.63 1.82 8.43 2.75 1.33.44 2.68.87 4.01 1.31 2.82.95 5.61 1.94 8.41 2.92 1.28.45 2.57.88 3.84 1.34 2.82 1.01 5.6 2.05 8.38 3.09 1.21.45 2.44.89 3.64 1.35 2.82 1.07 5.6 2.18 8.39 3.28 1.14.45 2.29.89 3.42 1.35 2.82 1.14 5.61 2.31 8.4 3.48 1.06.45 2.14.88 3.2 1.33 2.83 1.21 5.62 2.44 8.4 3.68.99.44 2 .87 2.99 1.32 2.82 1.27 5.6 2.57 8.38 3.87.93.44 1.87.86 2.8 1.3 2.81 1.33 5.59 2.7 8.36 4.07.87.43 1.75.85 2.61 1.28 2.8 1.4 5.57 2.83 8.33 4.26.81.42 1.62.83 2.43 1.25 2.79 1.47 5.55 2.96 8.29 4.46.75.41 1.5.8 2.24 1.21 2.78 1.54 5.53 3.1 8.27 4.67.68.39 1.37.77 2.05 1.16 2.77 1.6 5.5 3.23 8.22 4.87.63.38 1.26.75 1.89 1.13 2.75 1.67 5.47 3.37 8.17 5.07.57.36 1.15.71 1.72 1.07 2.73 1.74 5.43 3.5 8.11 5.27.52.35 1.05.68 1.57 1.03 2.71 1.8 5.39 3.63 8.05 5.47.47.32.94.64 1.41.97 2.69 1.87 5.35 3.77 7.99 5.68.42.3.84.6 1.25.9 2.67 1.94 5.3 3.91 7.91 5.88.37.28.75.56 1.12.84 2.63 2 5.23 4.03 7.81 6.07.33.26.67.52 1.01.79 2.61 2.07 5.17 4.17 7.72 6.27.29.24.58.47.87.71 2.57 2.14 5.11 4.3 7.62 6.47.25.22.51.43.75.65 2.53 2.2 5.03 4.42 7.5 6.66.22.19.44.39.65.58 2.5 2.26 4.96 4.55 7.39 6.85.18.17.37.34.55.51 2.45 2.32 4.86 4.66 7.25 7.02.16.15.31.3.47.46 2.4 2.38 4.77 4.78 7.11 7.19.13.13.26.26.39.4 1.62 1.68 3.22 3.37 4.81 5.07v-34.74c-.44-.42-.91-.87-1.47-1.39-1.87-1.73-3.07-2.8-3.73-3.33-.4-.27-.53-.67-.27-.93.27-.27.53-.27 1.07 0 .8.4 1.47 0 2.53-1.2l1.87-1.94v-9.12l-6.53 6.79c-1.07 1.07-1.47 1.73-1.07 2.53.27.4.4.67 0 .93-.27.27-.67.27-.93-.13-.53-.67-1.73-1.87-3.6-3.6s-3.07-2.8-3.73-3.33c-.4-.27-.53-.67-.27-.93.27-.27.53-.27 1.07 0 .8.4 1.47 0 2.53-1.2l6.8-7.07c1.87-2 3.33-4.27 1.47-5.87-1.73-1.73-4.13-.4-6 1.47l-6.93 7.2c-1.07 1.07-1.47 1.73-1.07 2.53.27.4.4.67.13.93-.27.27-.67.27-.93-.13-.53-.67-1.73-1.87-3.6-3.6s-3.07-2.8-3.73-3.33c-.4-.27-.53-.67-.27-.93.27-.27.53-.27 1.07 0 .8.4 1.47 0 2.53-1.2l8.27-8.67c1.07-1.07 1.47-1.73 1.07-2.53-.27-.4-.27-.8 0-1.07s.53-.27.93 0c1.2.8 4 2.4 7.47 3.6.67.13.67.53.27 1.07l-1.73 2.27c1.92-.6 4.38-.64 6.8 1.2v-46.19c-125.82-111.68-328.6-180.37-599.37-147.03-204.93 25.2-408.93 78.53-609.6 113.07-317.14 54.93-530.61 28.09-711.07-24.34v33.99c2.47 3 2.12 6.91 1.2 8.74-.27.4-.53.53-.93.4l-.27-.08v11.47c.65-.19 1-.82 1.33-2.05l3.33-11.47c.4-1.47.53-2.27-.27-2.67-.4-.27-.67-.53-.53-.93.13-.4.4-.53.93-.53 1.47.13 4.67.27 8.27-.27.67-.13.8.27.8.8l-.67 2.8c1.6-1.6 4-2.8 7.6-1.87 5.33 1.6 6.67 5.33 5.07 11.07l-2.67 9.47c-.4 1.47-.53 2.27.27 2.67.27.27.53.53.4.8-.13.4-.4.53-.93.27-.8-.27-2.27-.8-4.8-1.6-2.53-.67-4-1.07-4.93-1.2-.53-.13-.8-.4-.67-.8s.4-.4.93-.4c.93 0 1.33-.67 1.73-2.13l2.67-9.47c.8-2.67.93-5.2-1.33-6-2.27-.67-3.87 1.47-4.53 4l-2.8 9.87c-.4 1.47-.53 2.27.27 2.67.4.27.67.53.53.8-.13.4-.4.53-.93.27-.8-.27-2.27-.8-4.8-1.6-2-.53-3.33-.89-4.27-1.08v26.46c177.06 51.06 386.75 76.88 697.2 23.15z" fill="#fff"/><g fill="#5a357b"><path d="m0 357.73h1920c-.4-.4-.09-41.8 0-41.59v-43.97c-1.59-1.7-3.19-3.39-4.81-5.07-.13-.13-.26-.26-.39-.4-2.34-2.41-4.7-4.81-7.11-7.19-.15-.15-.31-.3-.47-.46-2.39-2.36-4.8-4.7-7.25-7.02-.18-.17-.37-.34-.55-.51-2.43-2.3-4.89-4.58-7.39-6.85-.22-.19-.44-.39-.65-.58-2.47-2.23-4.97-4.46-7.5-6.66-.25-.22-.5-.43-.75-.65-2.51-2.17-5.05-4.33-7.62-6.47-.29-.24-.58-.47-.87-.71-2.55-2.11-5.12-4.2-7.72-6.27-.33-.26-.67-.52-1.01-.79-2.58-2.04-5.17-4.07-7.81-6.07-.37-.28-.75-.56-1.12-.84-2.61-1.98-5.24-3.94-7.91-5.88-.41-.3-.84-.6-1.25-.9-2.64-1.91-5.3-3.81-7.99-5.68-.47-.32-.94-.64-1.41-.97-2.66-1.84-5.34-3.67-8.05-5.47-.52-.35-1.05-.68-1.57-1.03-2.68-1.77-5.37-3.53-8.11-5.27-.57-.36-1.15-.71-1.72-1.07-2.7-1.7-5.42-3.4-8.17-5.07-.63-.38-1.26-.75-1.89-1.13-2.72-1.64-5.45-3.26-8.22-4.87-.68-.39-1.37-.77-2.05-1.16-2.74-1.57-5.49-3.13-8.27-4.67-.74-.41-1.5-.81-2.24-1.21-2.75-1.5-5.5-2.99-8.29-4.46-.8-.42-1.62-.83-2.43-1.25-2.76-1.43-5.52-2.86-8.33-4.26-.86-.43-1.74-.85-2.61-1.28-2.77-1.37-5.55-2.73-8.36-4.07-.92-.44-1.87-.86-2.8-1.3-2.78-1.3-5.56-2.6-8.38-3.87-.99-.44-1.99-.87-2.99-1.32-2.79-1.24-5.58-2.47-8.4-3.68-1.06-.45-2.13-.89-3.2-1.33-2.79-1.17-5.58-2.34-8.4-3.48-1.13-.46-2.28-.9-3.42-1.35-2.78-1.11-5.57-2.21-8.39-3.28-1.21-.46-2.43-.9-3.64-1.35-2.78-1.04-5.57-2.08-8.38-3.09-1.27-.46-2.56-.89-3.84-1.34-2.79-.98-5.58-1.97-8.41-2.92-1.33-.45-2.68-.87-4.01-1.31-2.8-.92-5.6-1.85-8.43-2.75-1.4-.44-2.83-.86-4.24-1.3-2.8-.86-5.59-1.73-8.42-2.57-1.48-.44-2.98-.85-4.46-1.27-2.79-.8-5.58-1.61-8.4-2.39-1.55-.43-3.13-.83-4.7-1.25-2.79-.74-5.56-1.49-8.38-2.21-1.63-.41-3.28-.8-4.91-1.21-2.78-.69-5.56-1.38-8.36-2.04-1.71-.4-3.44-.77-5.15-1.16-2.77-.63-5.54-1.27-8.34-1.87-1.78-.38-3.59-.74-5.38-1.11-2.76-.57-5.52-1.16-8.31-1.7-1.86-.36-3.74-.7-5.61-1.05-2.76-.52-5.51-1.05-8.29-1.54-1.93-.34-3.89-.66-5.83-.98-2.75-.47-5.5-.95-8.28-1.39-2.01-.32-4.04-.61-6.06-.91-2.75-.42-5.48-.84-8.25-1.23-2.08-.29-4.2-.55-6.3-.83-2.74-.36-5.46-.74-8.22-1.08-2.16-.26-4.34-.5-6.51-.75-2.73-.31-5.46-.64-8.21-.93-2.23-.23-4.49-.43-6.73-.65-2.73-.27-5.45-.55-8.2-.79-2.31-.2-4.65-.37-6.98-.55-2.71-.22-5.41-.45-8.15-.64-2.39-.17-4.8-.3-7.2-.45-2.71-.17-5.4-.35-8.13-.5-2.44-.13-4.91-.22-7.37-.33-2.72-.12-5.43-.26-8.17-.36-2.52-.09-5.07-.14-7.61-.22-2.71-.08-5.4-.17-8.12-.23-2.63-.05-5.3-.06-7.95-.09-2.66-.03-5.31-.08-7.99-.09-2.7 0-5.44.02-8.16.04-2.66.01-5.31 0-7.98.04-2.74.04-5.51.11-8.26.17-2.69.06-5.37.09-8.08.17-2.84.08-5.71.21-8.57.32-2.65.1-5.29.18-7.96.3-2.95.13-5.94.31-8.91.47-2.61.14-5.2.26-7.82.42-3.09.19-6.21.42-9.32.64-2.54.18-5.05.33-7.6.52-3.34.26-6.72.56-10.09.85-2.35.2-4.68.38-7.04.59-3.86.36-7.76.76-11.65 1.16-1.89.19-3.77.36-5.67.57-5.81.62-11.65 1.3-17.52 2.02-201.87 24.8-402.8 77.33-600.4 111.33-310.43 53.74-520.12 27.92-697.18-23.14z"/><path d="m1662.77 120.53c-1.48-.44-2.98-.85-4.46-1.27 1.48.43 2.98.84 4.46 1.27z"/><path d="m1675.43 124.39c-1.4-.44-2.83-.86-4.24-1.3 1.41.44 2.83.86 4.24 1.3z"/><path d="m1649.91 116.87c-1.55-.43-3.13-.83-4.7-1.25 1.56.42 3.14.82 4.7 1.25z"/><path d="m456.07 326.74c-2.84.12-5.66.23-8.49.34 2.82-.11 5.64-.21 8.49-.34z"/><path d="m470.02 326.07c-2.67.14-5.33.26-7.99.39 2.66-.12 5.31-.25 7.99-.39z"/><path d="m425.41 327.77c-3.31.08-6.62.16-9.91.22 3.29-.06 6.59-.14 9.91-.22z"/><path d="m409.81 328.07c-2.54.04-5.08.07-7.6.1 2.52-.02 5.06-.06 7.6-.1z"/><path d="m484.17 325.27c-2.65.16-5.28.31-7.91.46 2.63-.15 5.27-.3 7.91-.46z"/><path d="m442.29 327.28c-3.98.14-7.93.26-11.87.37 3.94-.11 7.89-.23 11.87-.37z"/><path d="m396.12 328.2c-2.36.01-4.72.02-7.07.03 2.35 0 4.71-.01 7.07-.03z"/><path d="m382.85 328.21c-2.27 0-4.53-.02-6.79-.04 2.25.02 4.52.03 6.79.04z"/><path d="m528 322.07c-2.87.24-5.73.49-8.58.72 2.85-.23 5.71-.47 8.58-.72z"/><path d="m498.51 324.35c-2.67.18-5.33.36-7.98.53 2.65-.17 5.31-.35 7.98-.53z"/><path d="m1623.56 110.17c-1.71-.4-3.44-.77-5.15-1.16 1.72.39 3.45.76 5.15 1.16z"/><path d="m1568.37 99.34c-2.01-.32-4.04-.61-6.06-.91 2.02.31 4.06.59 6.06.91z"/><path d="m1610.07 107.13c-1.78-.38-3.59-.74-5.38-1.11 1.79.37 3.6.73 5.38 1.11z"/><path d="m1554.06 97.2c-2.08-.29-4.2-.55-6.3-.83 2.1.28 4.21.54 6.3.83z"/><path d="m1596.38 104.31c-1.86-.36-3.74-.7-5.61-1.05 1.87.35 3.76.69 5.61 1.05z"/><path d="m1582.47 101.72c-1.93-.34-3.89-.66-5.83-.98 1.94.33 3.9.64 5.83.98z"/><path d="m1479.43 90.03c-2.44-.13-4.91-.22-7.37-.33 2.46.11 4.93.2 7.37.33z"/><path d="m1539.54 95.29c-2.16-.26-4.34-.5-6.51-.75 2.17.25 4.36.48 6.51.75z"/><path d="m1494.76 90.98c-2.39-.17-4.8-.3-7.2-.45 2.4.15 4.82.28 7.2.45z"/><path d="m513.09 323.29c-2.74.21-5.47.42-8.19.61 2.72-.2 5.45-.4 8.19-.61z"/><path d="m1524.81 93.61c-2.23-.23-4.49-.43-6.73-.65 2.24.22 4.5.42 6.73.65z"/><path d="m1509.89 92.17c-2.31-.2-4.65-.37-6.98-.55 2.33.19 4.67.35 6.98.55z"/><path d="m1915.19 267.92c-.13-.13-.26-.26-.39-.4.13.13.26.26.39.4z"/><path d="m1849.08 210.58c-.41-.3-.84-.6-1.25-.9.42.3.84.6 1.25.9z"/><path d="m1875.51 231.14c-.29-.24-.58-.47-.87-.71.29.24.58.47.87.71z"/><path d="m168.96 310.81c-1.25-.2-2.5-.41-3.74-.62 1.24.21 2.49.41 3.74.62z"/><path d="m1883.88 238.26c-.25-.22-.5-.43-.75-.65.25.22.51.43.75.65z"/><path d="m1899.97 252.85c-.18-.17-.37-.34-.55-.51.18.17.37.34.55.51z"/><path d="m1892.04 245.5c-.22-.19-.44-.39-.65-.58.22.19.44.39.65.58z"/><path d="m1866.92 224.16c-.33-.26-.67-.52-1.01-.79.33.26.67.52 1.01.79z"/><path d="m219.16 318.05c-1.34-.17-2.66-.34-3.99-.51z"/><path d="m230.52 319.4c-1.56-.18-3.11-.37-4.66-.55 1.55.18 3.1.37 4.66.55z"/><path d="m241.98 320.67c-1.66-.18-3.31-.36-4.96-.54 1.65.18 3.3.36 4.96.54z"/><path d="m1858.11 217.3c-.37-.28-.75-.56-1.12-.84.37.28.75.56 1.12.84z"/><path d="m179.39 312.48c-1.15-.18-2.3-.35-3.44-.53 1.14.18 2.29.36 3.44.53z"/><path d="m188.66 313.89c-.61-.09-1.24-.18-1.85-.27.61.09 1.23.18 1.85.27z"/><path d="m158.37 309.03c-1.25-.22-2.5-.43-3.75-.65 1.25.22 2.5.44 3.75.65z"/><path d="m69.57 290.5c-.63-.15-1.26-.31-1.89-.46.63.15 1.26.31 1.89.46z"/><path d="m40.8 283.14c-.5-.13-1-.27-1.5-.4.5.13 1 .27 1.5.4z"/><path d="m78.63 292.68c-.37-.09-.74-.17-1.11-.26.37.09.74.17 1.11.26z"/><path d="m60.06 288.13c-.68-.17-1.36-.34-2.04-.52.68.17 1.36.34 2.04.52z"/><path d="m50.44 285.68c-.64-.17-1.29-.33-1.93-.5.64.17 1.28.33 1.93.5z"/><path d="m31.19 280.54c-.17-.05-.35-.1-.52-.14.17.05.35.1.52.14z"/><path d="m147.8 307.16c-1.2-.22-2.41-.44-3.61-.66 1.2.22 2.4.44 3.61.66z"/><path d="m137.29 305.21c-1.1-.21-2.2-.42-3.3-.63z"/><path d="m126.85 303.18c-.91-.18-1.81-.36-2.72-.55.91.18 1.81.37 2.72.55z"/><path d="m116.49 301.09c-.4-.08-.79-.17-1.18-.25.39.08.79.17 1.18.25z"/><path d="m1856.27 337.98c2.05 2.05 4.09 4.11 6.11 6.19-2.02-2.08-4.06-4.14-6.11-6.19z"/><path d="m1443.88 175.56c2.26.01 4.49.06 6.73.09-2.24-.03-4.47-.08-6.73-.09z"/><path d="m1758.12 156.77c-.92-.44-1.87-.86-2.8-1.3.93.44 1.87.86 2.8 1.3z"/><path d="m1735.55 146.61c-1.06-.45-2.13-.89-3.2-1.33 1.06.45 2.14.88 3.2 1.33z"/><path d="m1769.09 162.12c-.86-.43-1.74-.85-2.61-1.28.87.43 1.75.85 2.61 1.28z"/><path d="m1746.94 151.6c-.99-.45-1.99-.87-2.99-1.32.99.44 2 .87 2.99 1.32z"/><path d="m1687.87 128.46c-1.33-.45-2.68-.87-4.01-1.31 1.33.44 2.68.87 4.01 1.31z"/><path d="m356.93 327.89c-2.17-.05-4.33-.1-6.48-.16 2.16.06 4.32.11 6.48.16z"/><path d="m1779.84 167.63c-.8-.42-1.62-.83-2.43-1.25.81.42 1.62.83 2.43 1.25z"/><path d="m1463.89 89.34c-2.52-.09-5.07-.14-7.61-.22 2.54.07 5.09.12 7.61.22z"/><path d="m1700.12 132.71c-1.27-.46-2.56-.89-3.84-1.34 1.28.45 2.57.88 3.84 1.34z"/><path d="m253.56 321.84c-1.72-.17-3.43-.34-5.15-.51 1.71.17 3.43.34 5.15.51z"/><path d="m1790.38 173.3c-.74-.41-1.5-.81-2.24-1.21.75.41 1.5.8 2.24 1.21z"/><path d="m369.78 328.11c-2.2-.03-4.4-.06-6.6-.1 2.19.04 4.39.07 6.6.1z"/><path d="m1712.14 137.16c-1.21-.46-2.43-.9-3.64-1.35 1.21.45 2.44.89 3.64 1.35z"/><path d="m1723.95 141.79c-1.13-.46-2.28-.9-3.42-1.35 1.14.45 2.29.89 3.42 1.35z"/><path d="m277.1 323.91c-1.81-.14-3.62-.29-5.42-.44 1.8.15 3.61.29 5.42.44z"/><path d="m344.23 327.57c-2.14-.06-4.27-.14-6.4-.21 2.13.07 4.26.15 6.4.21z"/><path d="m289.12 324.81c-1.87-.13-3.74-.26-5.6-.4 1.86.14 3.73.27 5.6.4z"/><path d="m1839.84 204c-.47-.32-.94-.64-1.41-.97.47.32.94.64 1.41.97z"/><path d="m301.46 325.62c-2-.12-4-.24-5.98-.37 1.98.13 3.99.25 5.98.37z"/><path d="m265.26 322.92c-1.76-.16-3.53-.31-5.28-.47 1.76.16 3.52.32 5.28.47z"/><path d="m1830.38 197.57c-.52-.35-1.05-.68-1.57-1.03.52.34 1.05.68 1.57 1.03z"/><path d="m1810.81 185.13c-.63-.38-1.26-.75-1.89-1.13.63.38 1.26.75 1.89 1.13z"/><path d="m1800.7 179.13c-.68-.39-1.37-.77-2.05-1.16.68.39 1.37.77 2.05 1.16z"/><path d="m331.67 327.14c-2.13-.08-4.24-.18-6.36-.27 2.12.09 4.23.19 6.36.27z"/><path d="m1820.7 191.27c-.57-.36-1.15-.71-1.72-1.07.57.36 1.15.71 1.72 1.07z"/><path d="m319.26 326.6c-2.3-.11-4.58-.24-6.87-.36 2.29.12 4.57.25 6.87.36z"/><path d="m1636.84 113.41c-1.63-.41-3.28-.8-4.91-1.21 1.64.4 3.29.79 4.91 1.21z"/><path d="m1698.03 226.98c-2.22-1.01-4.45-2.02-6.7-3 2.25.98 4.48 1.99 6.7 3z"/><path d="m1755.82 257.86c-2.16-1.34-4.33-2.67-6.52-3.98 2.19 1.31 4.36 2.64 6.52 3.98z"/><path d="m1706.64 231c-2.22-1.06-4.44-2.11-6.68-3.14 2.24 1.03 4.46 2.08 6.68 3.14z"/><path d="m1680.43 219.37c-2.23-.92-4.47-1.83-6.73-2.72 2.26.89 4.49 1.81 6.73 2.72z"/><path d="m1671.46 215.77c-2.24-.87-4.49-1.74-6.76-2.59 2.27.85 4.51 1.72 6.76 2.59z"/><path d="m1689.29 223.11c-2.23-.96-4.46-1.92-6.71-2.86 2.25.94 4.49 1.9 6.71 2.86z"/><path d="m1739.89 248.39c-2.18-1.25-4.37-2.48-6.58-3.7 2.21 1.22 4.4 2.45 6.58 3.7z"/><path d="m1723.48 239.42c-2.19-1.15-4.39-2.29-6.61-3.41 2.22 1.12 4.42 2.26 6.61 3.41z"/><path d="m1574.33 187.91c-2.28-.44-4.55-.89-6.85-1.31 2.3.42 4.57.86 6.85 1.31z"/><path d="m1731.73 243.83c-2.19-1.2-4.38-2.38-6.59-3.55 2.21 1.17 4.4 2.36 6.59 3.55z"/><path d="m1715.12 235.14c-2.21-1.1-4.42-2.2-6.65-3.28 2.23 1.08 4.44 2.17 6.65 3.28z"/><path d="m1594.87 192.27c-2.28-.53-4.56-1.05-6.86-1.56 2.3.5 4.58 1.03 6.86 1.56z"/><path d="m1614.81 197.24c-2.27-.61-4.53-1.22-6.82-1.8 2.29.58 4.55 1.19 6.82 1.8z"/><path d="m1604.92 194.68c-2.27-.57-4.55-1.14-6.84-1.68 2.3.54 4.57 1.11 6.84 1.68z"/><path d="m1584.68 190.01c-2.28-.48-4.56-.97-6.86-1.43 2.3.46 4.58.95 6.86 1.43z"/><path d="m1662.34 212.32c-2.25-.83-4.49-1.65-6.76-2.45 2.27.8 4.52 1.63 6.76 2.45z"/><path d="m1653.09 209.01c-2.25-.78-4.5-1.56-6.77-2.32 2.27.76 4.52 1.54 6.77 2.32z"/><path d="m1643.75 205.85c-2.26-.74-4.52-1.48-6.8-2.19 2.28.72 4.54 1.45 6.8 2.19z"/><path d="m1624.58 199.96c-2.26-.65-4.52-1.3-6.8-1.93 2.28.63 4.54 1.28 6.8 1.93z"/><path d="m1634.23 202.83c-2.26-.69-4.52-1.39-6.8-2.06 2.28.67 4.54 1.36 6.8 2.06z"/><path d="m1747.9 253.06c-2.17-1.29-4.35-2.58-6.55-3.84 2.2 1.26 4.38 2.55 6.55 3.84z"/><path d="m1855.91 337.63c-2.03-2.02-4.07-4.03-6.12-6.02 2.05 1.99 4.1 4 6.12 6.02z"/><path d="m1849.37 331.2c-2.04-1.97-4.09-3.93-6.15-5.87 2.06 1.94 4.11 3.9 6.15 5.87z"/><path d="m1842.75 324.89c-2.05-1.93-4.11-3.84-6.19-5.74 2.08 1.9 4.14 3.81 6.19 5.74z"/><path d="m1868.74 350.78c-2.01-2.12-4.04-4.23-6.07-6.33 2.04 2.09 4.06 4.2 6.07 6.33z"/><path d="m1836.04 318.68c-2.06-1.88-4.14-3.75-6.23-5.6 2.09 1.85 4.17 3.72 6.23 5.6z"/><path d="m1875.02 357.51c-2-2.17-4.01-4.32-6.03-6.46 2.02 2.14 4.04 4.29 6.03 6.46z"/><path d="m1808.26 294.94c-2.1-1.68-4.21-3.35-6.34-5.01 2.13 1.65 4.24 3.32 6.34 5.01z"/><path d="m1829.24 312.58c-2.07-1.83-4.16-3.65-6.26-5.45 2.1 1.8 4.18 3.62 6.26 5.45z"/><path d="m1793.8 283.75c-2.12-1.59-4.26-3.16-6.4-4.72 2.15 1.56 4.28 3.13 6.4 4.72z"/><path d="m1786.4 278.33c-2.13-1.54-4.27-3.06-6.42-4.57 2.16 1.51 4.29 3.03 6.42 4.57z"/><path d="m1771.31 267.84c-2.14-1.44-4.3-2.86-6.47-4.27 2.17 1.41 4.32 2.83 6.47 4.27z"/><path d="m1778.92 273.03c-2.14-1.49-4.29-2.96-6.45-4.42 2.16 1.46 4.31 2.93 6.45 4.42z"/><path d="m1815.34 300.7c-2.09-1.73-4.19-3.45-6.31-5.15 2.12 1.7 4.22 3.42 6.31 5.15z"/><path d="m1801.08 289.29c-2.11-1.64-4.24-3.26-6.38-4.86 2.14 1.61 4.26 3.23 6.38 4.86z"/><path d="m1822.33 306.58c-2.08-1.78-4.17-3.55-6.28-5.29 2.11 1.75 4.2 3.51 6.28 5.29z"/><path d="m1763.63 262.8c-2.16-1.39-4.32-2.77-6.5-4.13 2.18 1.36 4.35 2.74 6.5 4.13z"/><path d="m1416.09 88.79c-2.74.04-5.51.11-8.26.17 2.75-.06 5.52-.14 8.26-.17z"/><path d="m594.38 315.23c-3.42.41-6.83.81-10.22 1.2 3.4-.39 6.8-.79 10.22-1.2z"/><path d="m579 317.02c-5.06.57-10.1 1.12-15.11 1.65 5.01-.52 10.04-1.08 15.11-1.65z"/><path d="m562.56 318.81c-4.57.48-9.13.94-13.65 1.37 4.53-.44 9.08-.9 13.65-1.37z"/><path d="m609.95 313.29c-3.16.41-6.31.8-9.45 1.19 3.14-.39 6.28-.78 9.45-1.19z"/><path d="m674.76 303.94c-3.33.53-6.66 1.06-9.96 1.57 3.31-.51 6.63-1.04 9.96-1.57z"/><path d="m658.04 306.54c-3.17.48-6.33.95-9.48 1.42 3.15-.46 6.31-.94 9.48-1.42z"/><path d="m625.73 311.2c-3.08.42-6.15.83-9.22 1.23 3.06-.4 6.13-.81 9.22-1.23z"/><path d="m543.57 320.68c-3.17.3-6.33.59-9.48.87 3.14-.28 6.31-.58 9.48-.87z"/><path d="m641.75 308.95c-3.1.45-6.19.88-9.27 1.31 3.08-.43 6.17-.87 9.27-1.31z"/><path d="m1448.16 88.9c-2.63-.05-5.3-.06-7.95-.09 2.65.03 5.31.04 7.95.09z"/><path d="m1399.75 89.14c-2.84.08-5.71.21-8.57.32 2.86-.11 5.73-.23 8.57-.32z"/><path d="m1383.23 89.75c-2.95.13-5.94.31-8.91.47 2.97-.16 5.96-.34 8.91-.47z"/><path d="m692.31 301.08c-3.72.62-7.44 1.24-11.13 1.84 3.69-.6 7.41-1.22 11.13-1.84z"/><path d="m1907.22 259.87c.16.15.31.3.47.46-.15-.15-.31-.3-.47-.46z"/><path d="m1366.49 90.64c-3.09.19-6.21.42-9.32.64 3.11-.22 6.23-.45 9.32-.64z"/><path d="m1424.08 88.75c2.72-.01 5.45-.05 8.16-.04-2.7 0-5.44.02-8.16.04z"/><path d="m1315.12 94.98c-5.81.62-11.65 1.3-17.52 2.02 5.87-.72 11.71-1.39 17.52-2.02z"/><path d="m1349.56 91.8c-3.34.26-6.72.56-10.09.85 3.37-.29 6.74-.59 10.09-.85z"/><path d="m1332.44 93.25c-3.86.36-7.76.76-11.65 1.16 3.89-.4 7.79-.81 11.65-1.16z"/><path d="m714.49 297.28c-5.62.99-11.2 1.96-16.75 2.9 5.55-.94 11.13-1.9 16.75-2.9z"/><path d="m1509.22 178.71c-2.28-.21-4.56-.43-6.87-.62 2.3.19 4.58.41 6.87.62z"/><path d="m1497.82 177.75c-2.28-.17-4.55-.35-6.84-.51 2.3.15 4.57.33 6.84.51z"/><path d="m1486.24 176.97c-2.26-.14-4.52-.28-6.8-.4 2.28.12 4.53.26 6.8.4z"/><path d="m1474.53 176.35c-2.26-.1-4.51-.21-6.78-.29 2.28.08 4.52.19 6.78.29z"/><path d="m1542.43 182.57c-2.28-.32-4.55-.65-6.84-.95 2.3.3 4.57.63 6.84.95z"/><path d="m1462.63 175.92c-2.24-.07-4.48-.14-6.74-.19 2.26.05 4.5.12 6.74.19z"/><path d="m1520.42 179.83c-2.27-.25-4.54-.5-6.83-.72 2.29.23 4.56.48 6.83.72z"/><path d="m1553.24 184.19c-2.29-.36-4.57-.73-6.88-1.07 2.31.34 4.59.71 6.88 1.07z"/><path d="m1531.5 181.12c-2.27-.28-4.54-.57-6.84-.84 2.29.26 4.56.55 6.84.84z"/><path d="m1361.06 178.9c-1.98.17-3.95.31-5.94.49 1.99-.18 3.96-.33 5.94-.49z"/><path d="m1374.52 177.87c-2.07.14-4.12.27-6.21.43 2.08-.16 4.14-.29 6.21-.43z"/><path d="m1347.35 180.13c-1.87.18-3.72.34-5.59.53 1.88-.19 3.73-.35 5.59-.53z"/><path d="m1563.87 185.97c-2.29-.4-4.57-.81-6.87-1.19 2.31.38 4.59.79 6.87 1.19z"/><path d="m1333.16 181.6c-1.66.18-3.29.35-4.96.54 1.66-.19 3.3-.35 4.96-.54z"/><path d="m1426.07 175.66c-2.24.03-4.46.05-6.72.1 2.25-.05 4.48-.07 6.72-.1z"/><path d="m1413.49 175.93c-2.21.06-4.41.11-6.64.19 2.23-.08 4.43-.13 6.64-.19z"/><path d="m1387.74 177.03c-2.14.12-4.26.23-6.41.36 2.15-.14 4.28-.24 6.41-.36z"/><path d="m1438.4 175.57c-2.23 0-4.45-.01-6.7 0 2.25-.02 4.47 0 6.7 0z"/><path d="m1400.66 176.39c-2.16.09-4.31.17-6.48.28 2.18-.11 4.32-.19 6.48-.28z"/></g><path d="m1.2 145.53c.92-1.83 1.27-5.74-1.2-8.74v9.06l.27.08c.4.13.67 0 .93-.4z" fill="#3e000a"/><path d="m9.07 161.4c.53.27.8.13.93-.27.13-.27-.13-.53-.53-.8-.8-.4-.67-1.2-.27-2.67l2.8-9.87c.67-2.53 2.27-4.67 4.53-4 2.27.8 2.13 3.33 1.33 6l-2.67 9.47c-.4 1.47-.8 2.13-1.73 2.13-.53 0-.8 0-.93.4s.13.67.67.8c.93.13 2.4.53 4.93 1.2 2.53.8 4 1.33 4.8 1.6.53.27.8.13.93-.27.13-.27-.13-.53-.4-.8-.8-.4-.67-1.2-.27-2.67l2.67-9.47c1.6-5.73.27-9.47-5.07-11.07-3.6-.93-6 .27-7.6 1.87l.67-2.8c0-.53-.13-.93-.8-.8-3.6.53-6.8.4-8.27.27-.53 0-.8.13-.93.53s.13.67.53.93c.8.4.67 1.2.27 2.67l-3.33 11.47c-.33 1.23-.69 1.86-1.33 2.05v1.4c.93.19 2.26.55 4.27 1.08 2.53.8 4 1.33 4.8 1.6z" fill="#3e000a"/><path d="m36.27 166.2c-.4 0-.93-.13-1.2-.4-.4-.27-.53-.93-.27-2.13l4.13-15.07 2 .53c.67.13.93-.13 1.07-.8s0-.93-.53-1.07l-2-.53 1.2-4.13c.13-.53-.27-.8-.67-.93s-.8 0-1.07.4c-1.73 2-5.2 3.33-7.87 2.53h-.13c-.67-.13-.93 0-1.07.67-.13.67-.13 1.07.53 1.2l.67.13-4 14.67c-1.07 3.87.67 6.13 4.27 7.07 2.53.8 4.27.4 5.6-.67.4-.4.53-.67.27-1.07-.13-.27-.53-.4-.93-.4z" fill="#3e000a"/><path d="m53.2 149.93c-5.6-1.47-10.13.27-11.2 4.4-1.87 6.93 7.07 9.07 8.53 12.93.8 1.87-.8 4.4-3.6 3.73-4.27-1.07-.13-7.07-4.93-8.13-4.27-.93-5.73 6.67 4.67 9.33 7.87 2.13 11.07-1.2 12-4.13 2.13-6.4-5.87-8.67-9.2-13.2-1.2-1.6.13-4.8 3.33-3.73 3.47 1.33-.4 5.73 4.53 7.07 3.87 1.07 6.13-5.47-4.13-8.27z" fill="#3e000a"/><path d="m137.87 169.13c-4-.8-6.53.93-8 2.8-.53-2.93-2.4-4.93-6.13-5.6-3.6-.67-5.87.8-7.33 2.53l.27-2.8c0-.53-.27-.8-.8-.67-3.6.93-6.8 1.07-8.27 1.07-.4 0-.67.13-.8.53s.13.53.53.8c.8.4.8 1.2.53 2.67l-2.4 11.73c-.27 1.47-.53 2.27-1.47 2.27-.4 0-.67.13-.8.53s.13.67.67.67c.8 0 2.4.27 4.93.8s4.13.93 4.93 1.2c.53.13.8 0 .93-.4s-.13-.53-.53-.8c-.8-.4-.8-1.2-.53-2.67l2-9.73c.53-2.53 1.87-4.93 4.27-4.4 2.4.4 2.4 3.07 1.87 5.73l-1.87 9.6c-.27 1.47-.53 2.27-1.47 2.27-.4 0-.67.13-.8.53s.13.67.67.67c.8 0 2.4.27 4.93.8s4.13.93 4.93 1.2c.53.13.8 0 .93-.4s-.13-.53-.53-.8c-.8-.4-.8-1.2-.53-2.67l1.87-9.6v-.13c.53-2.53 1.87-4.93 4.27-4.4 2.4.4 2.4 3.07 1.87 5.73l-1.87 9.6c-.27 1.47-.53 2.27-1.47 2.27-.4 0-.67.13-.8.53s.13.67.67.67c.8 0 2.4.27 4.93.8s4.13.93 4.93 1.2c.53.13.8 0 .93-.4 0-.4-.13-.53-.8-.93-.8-.4-.8-1.2-.53-2.67l1.87-9.6c1.07-5.87-.53-9.47-6-10.53z" fill="#3e000a"/><path d="m167.07 182.6c.93-5.6-1.87-8.8-8.4-9.87-10.8-1.87-11.73 5.87-7.33 6.93 6.13 1.47 2.8-6.4 7.07-5.73 1.87.4 1.47 2.53.8 6.53l-.13.53c-2.27 1.47-13.2-.53-14.27 7.6-.4 3.2 1.6 5.73 5.73 6.4 2.53.4 5.6-.4 7.2-2.93.67 4 4.53 4.4 6.8 4.8l.67.13c.53.13.93 0 .93-.4s-.4-.4-.67-.93c-.4-.67-.13-2.27 0-3.33.27-1.47 1.6-9.73 1.6-9.73zm-9.33 6.27c-.27 1.73-1.6 2.53-2.8 2.27-1.07-.13-1.87-.93-1.87-2.27.13-3.2 4.13-4.8 5.6-5.33z" fill="#3e000a"/><path d="m189.47 196.6-5.07-14.53c2.8-2.8 3.07.8 5.47 1.2 3.73.67 5.47-4.27 1.47-5.87-1.47-.67-4.13-.67-6 1.47l-6.67 7.6 2.4-15.87c.13-.53-.27-.8-.8-.67-3.47 1.07-7.2 1.33-8.67 1.33-.53 0-.8.13-.8.53s.27.67.67.8c.93.4.93 1.2.67 2.67l-2.8 18.27c-.13 1.47-.4 2.27-1.33 2.4-.4 0-.8.13-.8.53-.13.4.13.67.67.67.93.13 2.53.27 5.07.67 2.53.4 4.13.67 4.93.93.53.13.93 0 .93-.4s-.27-.67-.67-.8c-.93-.4-.93-1.2-.67-2.67l.8-5.6.8-.93 2.13 7.47c.13.93.4 1.73.67 2.53l.13.67c.13.53.53.8.93.8.67 0 1.87.13 3.73.4 2 .4 3.6.67 4.13.8s.93 0 .93-.4-.13-.53-.53-1.2c-.93-.4-1.2-1.33-1.73-2.8z" fill="#3e000a"/><path d="m201.2 179.13c2.8.4 5.33-1.07 5.6-3.33.27-2.27-1.73-4.4-4.53-4.8-2.8-.27-5.33 1.2-5.6 3.47-.4 2.27 1.73 4.4 4.53 4.67z" fill="#3e000a"/><path d="m204.4 180.2c-3.47 1.2-7.2 1.47-8.67 1.47-.53.13-.8.27-.8.67s.27.67.67.8c.8.4.93 1.2.67 2.67l-1.6 11.87c-.13 1.47-.4 2.27-1.33 2.4-.4 0-.8.13-.8.53s.27.67.8.67c.93 0 2.53.13 5.07.53 2.53.27 4.13.67 4.93.8.53.13.93 0 .93-.4s-.27-.53-.8-.8c-.8-.4-.93-1.2-.67-2.67l2.4-17.87c.13-.53-.27-.93-.8-.67z" fill="#3e000a"/><path d="m230.93 204.87c-.8-.4-.8-1.2-.67-2.67l1.2-9.73c.67-6-1.33-9.47-6.8-10.13-3.73-.4-5.87 1.2-7.2 3.07v-2.8c-.13-.67-.4-.93-.93-.67-3.47 1.2-6.67 1.6-8.13 1.6-.53.13-.8.27-.8.67s.27.67.67.8c.93.4.93 1.2.8 2.67l-1.47 11.87c-.13 1.47-.4 2.27-1.33 2.4-.4 0-.8.13-.8.53s.27.67.8.67c.93 0 2.53.13 5.07.4 2.53.4 4.13.67 4.93.8.53.13.93 0 .93-.4s-.27-.67-.67-.8c-.8-.4-.8-1.2-.67-2.67l1.2-9.87c.27-2.67 1.47-5.07 3.87-4.8s2.53 2.93 2.27 5.6l-1.2 9.73c-.13 1.47-.4 2.27-1.33 2.4-.4 0-.8.13-.8.53s.27.67.8.67c.93 0 2.53.13 5.07.4 2.53.4 4.13.67 4.93.8.53.13.93 0 .93-.4s-.27-.53-.67-.67z" fill="#3e000a"/><path d="m258.67 182.07c-2.8-.53-5.07 1.47-5.73 3.87-1.47-.53-3.2-.93-5.33-1.2-6.4-.67-12.4 1.6-13.33 7.07-.53 3.33.53 5.87 3.07 7.47-.93.4-4.27 1.6-4.13 4.93.13 1.73 1.2 2.8 2.93 3.33-1.33.53-2.67 1.33-2.67 2.67 0 2.13 4 4 9.47 4.53 7.07.67 14.13-1.07 14.53-6.27.27-4-3.73-5.2-11.87-4.8-4.27.13-7.47-.13-8.13-1.2-.4-.67-.13-1.6 1.2-2.53 1.33.67 3.07 1.07 5.07 1.2 6.53.67 12.8-1.6 13.73-7.07.53-3.47-.8-6-3.6-7.6 1.07-1.87 3.73.67 5.6-.27 2-.8 1.6-3.73-.8-4.13zm-20.67 28c.13-1.07.8-1.6 1.2-1.87 1.87.27 3.87.27 5.47.13 4-.13 5.33.27 5.2 1.73-.13 1.6-1.87 3.6-6.93 3.2-3.6-.27-5.2-1.6-4.93-3.2zm8.93-10c-1.87.13-3.47-2.27-4-6.93-.67-4.67-.13-6.93 2-7.2 1.87-.27 3.33 1.87 4 6.53.53 4.53-.53 7.47-2 7.6z" fill="#3e000a"/><path d="m305.87 210.87c-.8-.4-.93-1.2-.8-2.67l.67-9.73c.4-6-1.73-9.33-7.33-9.73-4.13-.27-6.4 1.87-7.6 3.87-.8-2.93-3.07-4.53-6.8-4.8-3.6-.13-5.73 1.6-6.93 3.47l-.13-2.8c-.13-.67-.4-.93-.93-.67-3.33 1.33-6.53 1.87-8 2-.53 0-.8.27-.8.67s.27.67.67.8c.93.4 1.07 1.2.93 2.67l-.8 12c-.13 1.6-.27 2.4-1.2 2.53-.53.13-.8.27-.8.67 0 .27.27.53.8.53.93 0 2.53 0 5.07.13 2.67.27 4.27.4 5.07.53.4 0 .8-.13.8-.53s-.27-.53-.67-.67c-.8-.4-.93-1.2-.8-2.67l.67-10c.13-2.67 1.2-5.07 3.6-4.93 2.53.13 2.8 2.8 2.67 5.47l-.67 9.73c-.13 1.6-.27 2.4-1.2 2.53-.53.13-.8.27-.8.67 0 .27.27.53.8.53.93 0 2.53 0 5.07.13 2.67.27 4.27.4 5.07.53.4 0 .8-.13.8-.53s-.27-.53-.67-.67c-.8-.4-.93-1.2-.8-2.67l.67-9.73v-.13c.13-2.67 1.2-5.07 3.6-4.93 2.53.13 2.8 2.8 2.67 5.47l-.67 9.73c-.13 1.6-.27 2.4-1.2 2.53-.53.13-.8.27-.8.67 0 .27.27.53.8.53.93 0 2.53 0 5.07.13 2.67.27 4.27.4 5.07.53.4 0 .8-.13.8-.53s-.27-.53-.93-.67z" fill="#3e000a"/><path d="m320 189.67c-7.2-.27-11.87 4.8-12.13 11.2-.27 6.53 4 11.87 11.2 12.13 7.2.27 11.87-4.8 12.13-11.2.27-6.4-4-11.73-11.2-12.13zm1.33 21.87c-2.53.4-4.27-4.27-5.07-9.6s-.93-10.13 1.47-10.67c2.53-.4 4.27 4.27 5.07 9.6s1.07 10.13-1.47 10.67z" fill="#3e000a"/><path d="m372.4 213.27c0-.4-.27-.67-.8-.53-.8-.27-.93-1.07-.93-2.53l.13-9.87c.13-6-2.13-9.2-7.73-9.33-4.13-.13-6.4 2-7.47 4.13-1.07-2.8-3.33-4.4-7.07-4.4-3.6-.13-5.73 1.73-6.8 3.73l-.27-2.8c-.13-.53-.4-.8-.93-.53-3.33 1.47-6.4 2.13-7.87 2.4-.4 0-.67.27-.67.67-.13.4.13.53.67.67.93.27 1.07 1.07 1.07 2.53l-.27 12c0 1.47-.13 2.27-1.07 2.53-.53.13-.8.27-.8.67s.27.53.8.53c.93-.13 2.53-.13 5.07-.13 2.67.13 4.27.13 5.07.27.53 0 .8-.13.8-.53.13-.4-.27-.53-.67-.67-.8-.27-.93-1.07-.93-2.53l.13-10c0-2.53.93-5.07 3.33-5.07 2.53 0 2.93 2.53 2.93 5.33l-.13 9.87c0 1.47-.13 2.27-1.07 2.53-.53.13-.8.27-.8.67s.27.53.8.53c.93-.13 2.53-.13 5.07-.13 2.67.13 4.27.13 5.07.27.53 0 .8-.13.8-.53.13-.4-.27-.53-.67-.67-.8-.27-.93-1.07-.93-2.53l.13-9.87v-.13c0-2.53.93-5.07 3.33-5.07 2.53 0 2.93 2.53 2.93 5.33l-.13 9.87c0 1.47-.13 2.27-1.07 2.53-.53.13-.8.27-.8.67s.27.53.8.53c.93-.13 2.53-.13 5.07-.13 2.67.13 4.27.13 5.07.27.53 0 .8-.13.8-.53z" fill="#3e000a"/><path d="m384.8 213.93c4.93 0 7.6-2.93 8.53-4.13.27-.4.27-.67.13-.93-.13-.27-.53-.27-.93-.13-5.73 1.73-9.87-.8-11.2-6.27-.13-.53-.13-.93-.27-1.47h12.13c.4 0 .67-.13.8-.67.4-2.8-1.47-9.6-10-9.73-6.8.13-11.47 5.87-10.93 12.53.53 6.4 5.33 10.8 11.73 10.8zm-.67-21.87c1.87 0 2.8 2.93 2.8 5.07 0 2-.53 2.13-3.07 2.13h-2.93c-.13-3.87 1.2-7.2 3.2-7.2z" fill="#3e000a"/><path d="m395.47 195.4c.93.27 1.07 1.07 1.07 2.53l.27 12c0 1.47 0 2.27-.93 2.53-.4.13-.67.27-.67.67s.27.53.8.53c.93-.13 2.53-.27 5.07-.27 2.53-.13 4.27 0 5.07 0 .53 0 .8-.13.8-.53s-.27-.53-.8-.67c-.93-.27-1.07-1.07-1.07-2.53l-.27-10c0-2.53.8-5.2 3.2-5.2 2.4-.13 3.07 2.4 3.07 5.2l.27 9.87c0 1.47 0 2.27-.93 2.53-.4.13-.67.27-.67.67s.27.53.8.53c.93-.13 2.53-.27 5.07-.27 2.53-.13 4.27 0 5.07 0 .53 0 .8-.13.8-.53s-.27-.53-.8-.4c-.93-.27-1.07-1.07-1.07-2.53l-.27-9.87c-.13-6-2.53-9.2-8.13-9.07-3.6 0-5.6 2-6.67 4l-.4-2.8c-.13-.53-.4-.8-.93-.53-3.33 1.73-6.4 2.53-7.87 2.8-.4 0-.67.27-.67.67s.27.53.8.67z" fill="#3e000a"/><path d="m422.27 192.47h.67l.53 15.2c.13 4.13 2.53 5.6 6.27 5.47 2.53 0 4-.8 5.07-2.27.27-.4.27-.67 0-.8-.13-.27-.53-.27-.93-.13-.53.13-.93.13-1.33 0-.4-.27-.8-.8-.8-2l-.53-15.6 2.13-.13c.67 0 .8-.27.8-1.07 0-.67-.27-.93-.8-.93l-2.13.13-.13-4.27c-.13-.67-.53-.8-.93-.8-.53 0-.8.27-.93.67-1.07 2.4-4 4.53-6.8 4.67h-.13c-.67 0-.8.27-.8.93s.13.93.8.93z" fill="#3e000a"/><path d="m447.47 206.6c1.33 1.6.67 4.53-2.27 4.67-4.53.27-2.4-6.67-7.2-6.27-4.27.4-3.6 8.13 7.2 7.6 8.13-.4 10.27-4.53 10.27-7.6.27-6.93-8.13-6.67-12.67-10-1.6-1.2-1.2-4.67 2.13-4.53 3.87.13 1.47 5.6 6.53 5.33 3.87-.13 4.27-7.07-6.53-6.67-5.87.27-9.6 3.33-9.47 7.6.27 7.2 9.47 6.53 12 9.87z" fill="#3e000a"/><path d="m501.87 190.07c1.07.13 1.2.93 1.33 2.4l1.07 12c.13 1.47.13 2.4-.8 2.67-.4.13-.67.27-.67.67.13.4.4.67.93.53.93-.27 2.53-.4 5.07-.67 2.53-.13 4.27-.27 5.07-.27.53 0 .8-.27.8-.67 0-.27-.27-.4-.8-.53-.93-.13-1.07-.93-1.2-2.4l-.93-9.87c-.27-2.67.4-5.2 2.8-5.47 2.4-.13 3.2 2.4 3.47 5.07l.93 9.73c.13 1.47.13 2.4-.8 2.67-.4.13-.67.27-.67.67.13.4.4.67.93.53.93-.27 2.53-.4 5.07-.67 2.53-.13 4.27-.27 5.07-.27.53 0 .8-.27.8-.67 0-.27-.27-.4-.8-.53-.93-.13-1.07-.93-1.2-2.4l-.93-9.73v-.13c-.27-2.67.4-5.2 2.8-5.47 2.4-.13 3.2 2.4 3.47 5.07l.93 9.73c.13 1.47.13 2.4-.8 2.67-.4.13-.67.27-.67.67.13.4.4.67.93.53.93-.27 2.53-.4 5.07-.67 2.53-.13 4.27-.27 5.07-.27.53 0 .8-.27.8-.67s-.27-.53-1.47-.93c-.93-.13-1.07-.93-1.2-2.4l-.93-9.73c-.53-6-3.07-9.07-8.67-8.53-4.13.4-6 2.67-6.93 4.93-1.33-2.67-3.73-4-7.47-3.6-3.73.27-5.47 2.27-6.4 4.4l-.67-2.8c-.13-.53-.4-.8-.93-.4-3.07 2-6.13 2.93-7.6 3.33-.53.13-.67.4-.67.8s.27.53.8.67z" fill="#3e000a"/><path d="m544.13 200.07c.53 3.07 3.2 4.93 7.33 4.53 2.53-.27 5.33-1.87 6.13-4.8 1.73 3.6 5.6 2.93 7.87 2.67l.67-.13c.53 0 .8-.27.8-.67s-.4-.4-.8-.4c-.67-.53-.8-2.13-.93-3.2-.13-1.47-1.2-9.73-1.2-9.73-.53-5.6-4.13-7.87-10.8-7.2-10.8 1.2-9.6 8.93-5.07 8.67 6.27-.27.93-7.07 5.2-7.47 1.87-.27 2.13 2 2.53 6v.53c-1.87 2-12.93 3.07-11.73 11.2zm12.13-9.07.53 5.47c.27 1.87-.93 2.93-2 2.93-1.07.13-2-.4-2.4-1.73-.8-3.2 2.53-5.73 3.87-6.67z" fill="#3e000a"/><path d="m565.6 177.67c.93.13 1.2.93 1.33 2.4l2.27 18.27c.27 1.47.13 2.27-.67 2.67-.4.27-.67.4-.67.8.13.4.4.53.93.4.8-.27 2.4-.53 4.93-.8s4.27-.4 5.07-.4c.53 0 .8-.27.8-.67s-.27-.53-.8-.53c-.93-.13-1.2-.93-1.33-2.4l-.67-5.6.53-1.2 4 6.53c.4.67.93 1.33 1.33 2.13l.4.53c.27.4.67.67 1.07.53.67-.13 1.73-.27 3.73-.53 2-.27 3.6-.4 4.13-.4.53-.13.8-.27.8-.67s-.27-.53-1.07-.67c-.93-.13-1.47-.93-2.4-2.27l-8.67-12.67c2-3.33 3.2 0 5.6-.27 3.73-.53 4.13-5.6-.13-6.13-1.73-.13-4.27.53-5.47 3.07l-4.4 9.07-1.87-15.87c0-.53-.4-.8-.93-.4-3.07 2-6.53 3.2-8 3.6-.53.13-.67.4-.67.8s.27.67.8.67z" fill="#3e000a"/><path d="m599.73 175.8c-2.93 2-6.4 3.2-7.87 3.6-.53.13-.67.4-.67.8s.27.67.8.67c.93.13 1.2.93 1.33 2.4l1.6 11.87c.27 1.47.13 2.27-.67 2.67-.4.27-.67.4-.67.8.13.4.4.53.93.4.8-.13 2.4-.53 4.93-.8 2.67-.4 4.27-.53 5.07-.53.53 0 .8-.27.8-.67s-.27-.53-.93-.53c-.93-.13-1.2-.93-1.33-2.4l-2.27-17.87c-.13-.53-.53-.8-1.07-.4z" fill="#3e000a"/><path d="m596.4 175.53c2.8-.4 4.8-2.4 4.53-4.67s-2.8-3.87-5.6-3.47-4.8 2.53-4.53 4.8 2.8 3.73 5.6 3.33z" fill="#3e000a"/><path d="m604.67 179.13c1.07.13 1.2.93 1.47 2.4l1.6 11.87c.13 1.47.13 2.27-.67 2.67-.53.27-.67.4-.67.8.13.4.4.53.93.4.8-.13 2.27-.4 4.93-.8s4.27-.53 5.07-.53c.53 0 .8-.27.8-.67s-.27-.53-.8-.53c-.93-.13-1.07-.93-1.33-2.4l-1.33-9.87c-.4-2.67.13-5.2 2.53-5.6s3.33 2.13 3.73 4.8l1.33 9.73c.13 1.47.13 2.27-.67 2.67-.53.27-.67.4-.67.8.13.4.4.53.93.4.8-.13 2.4-.4 4.93-.8 2.67-.4 4.27-.53 5.07-.53.53 0 .8-.27.8-.67s-.4-.53-1.07-.53c-.93-.13-1.07-.93-1.33-2.4l-1.33-9.73c-.8-5.87-3.6-8.8-9.07-8-3.6.53-5.33 2.67-6.13 4.8l-.8-2.8c-.27-.53-.53-.8-1.07-.4-3.07 2-6 3.2-7.47 3.6-.4.13-.53.4-.53.8 0 .27.27.53.8.53z" fill="#3e000a"/><path d="m636.8 185.67c-.8.67-3.73 2.67-2.8 5.87.4 1.6 1.87 2.4 3.6 2.53-1.2.8-2.13 1.87-1.87 3.2.53 2 4.8 2.8 10.27 2 6.93-1.07 13.47-4.53 12.53-9.6-.8-4-5.07-4-12.8-1.73-4 1.2-7.33 1.6-8.13.8-.53-.53-.53-1.47.53-2.67 1.47.27 3.33.27 5.2 0 6.53-1.07 12.13-4.67 11.6-10.27-.27-3.6-2.13-5.73-5.33-6.53.67-2.13 3.87-.4 5.47-1.6 1.73-1.33.67-4-1.73-3.87-2.8.13-4.67 2.67-4.67 5.2-1.6-.27-3.47-.13-5.47.13-6.4.93-11.73 4.53-11.2 10.13.27 3.33 2 5.47 4.8 6.4zm4 8.27c1.87-.27 3.73-.8 5.47-1.2 3.87-1.2 5.2-.93 5.47.4.27 1.47-.93 3.87-6 4.8-3.6.67-5.47-.13-5.6-1.87-.13-1.07.27-1.73.67-2.13zm0-23.07c1.6-.8 3.73.93 5.47 5.33 1.73 4.4 1.47 7.47-.13 7.87-1.73.67-3.87-1.47-5.6-5.73s-1.73-6.8.27-7.47z" fill="#3e000a"/><path d="m664.67 169.93c.93 0 1.2.8 1.47 2.27l2 11.87c.27 1.47.27 2.27-.53 2.67-.53.27-.67.4-.67.8.13.4.4.53.93.4.8-.13 2.4-.53 4.93-.93 2.67-.4 4.27-.53 5.07-.67.4 0 .8-.27.67-.67 0-.4-.27-.53-.8-.53-.93-.13-1.2-.93-1.47-2.4l-1.6-9.87c-.4-2.53 0-5.2 2.4-5.6s3.47 2.13 3.87 4.8l1.6 9.73c.27 1.47.27 2.27-.53 2.67-.53.27-.67.4-.67.8.13.4.4.53.93.4.8-.13 2.4-.53 4.93-.93 2.67-.4 4.27-.67 5.07-.67.4 0 .8-.27.67-.67 0-.4-.27-.53-.8-.53-.93-.13-1.2-.93-1.47-2.4l-1.6-9.73v-.13c-.4-2.53 0-5.2 2.4-5.6s3.47 2.13 3.87 4.8l1.6 9.73c.27 1.47.27 2.27-.53 2.67-.53.27-.67.4-.67.8.13.4.4.53.93.4.8-.13 2.4-.53 4.93-.93 2.67-.4 4.27-.53 5.07-.67.4 0 .8-.27.67-.67 0-.4-.27-.53-1.07-.8-.93-.13-1.2-.93-1.47-2.4l-1.6-9.73c-1.07-5.87-3.87-8.67-9.33-7.73-4.13.67-5.87 3.2-6.53 5.47-1.47-2.67-4-3.73-7.73-3.07-3.6.67-5.2 2.8-6 4.93l-.8-2.67c-.27-.53-.53-.8-1.07-.4-2.93 2.13-5.87 3.33-7.33 3.87-.4.13-.53.4-.53.8s.27.53.8.53z" fill="#3e000a"/><path d="m719.87 179.93c7.2-1.33 10.67-7.2 9.47-13.6-1.07-6.27-6.4-10.67-13.6-9.33-7.2 1.33-10.53 7.33-9.47 13.6 1.2 6.27 6.53 10.67 13.6 9.33zm-6-21.07c2.4-.93 5.07 3.2 7.07 8.27s3.2 9.73.93 10.8c-2.4.93-5.07-3.2-7.07-8.27s-3.2-9.73-.93-10.8z" fill="#3e000a"/><path d="m730 159c.93 0 1.2.8 1.47 2.27l2.27 11.73c.27 1.47.27 2.27-.53 2.67-.53.27-.8.4-.67.8s.4.53.93.4c.8-.27 2.4-.53 4.93-1.07s4.13-.67 4.93-.8c.53 0 .8-.27.67-.67 0-.4-.27-.53-.8-.53-.93 0-1.2-.8-1.47-2.27l-1.87-9.73c-.53-2.67-.13-5.33 2.27-5.73s3.33 2 3.87 4.67l1.87 9.6c.27 1.47.27 2.27-.53 2.67-.53.27-.8.4-.67.8s.4.53.93.4c.8-.27 2.4-.53 4.93-1.07s4.13-.67 4.93-.8c.4 0 .8-.27.67-.67 0-.4-.27-.53-.8-.53-.93 0-1.2-.8-1.47-2.27l-1.87-9.6v-.13c-.53-2.67-.13-5.33 2.27-5.73s3.33 2 3.87 4.67l1.87 9.6c.27 1.47.27 2.27-.53 2.67-.53.27-.8.4-.67.8s.4.53.93.4c.8-.27 2.4-.53 4.93-1.07 2.53-.53 4.13-.67 4.93-.8.53 0 .8-.27.67-.67s-.4-.4-.53-.53c-.93 0-1.2-.8-1.47-2.27l-1.87-9.6c-1.07-5.87-4-8.67-9.47-7.6-4 .8-5.73 3.33-6.4 5.6-1.47-2.53-4-3.6-7.73-2.93-3.6.67-5.2 2.93-5.87 5.07l-.93-2.67c-.27-.53-.53-.8-1.07-.4-2.93 2.13-5.73 3.47-7.2 4-.4.13-.67.4-.53.8 0 .4.27.53.8.53z" fill="#3e000a"/><path d="m784.8 167.53c4.93-1.07 6.93-4.27 7.6-5.73.13-.4.13-.8-.13-.93-.27-.13-.53 0-.93.13-5.33 2.67-9.73 1.07-12.13-4.13-.13-.4-.4-.93-.53-1.33l11.87-2.27c.4 0 .67-.27.67-.8-.13-2.93-3.33-9.33-11.47-7.73-6.67 1.47-10.13 7.87-8.4 14.4 1.6 6.13 7.2 9.6 13.47 8.4zm-4.8-21.47c1.73-.4 3.2 2.27 3.6 4.4.4 2-.13 2.13-2.67 2.67l-2.67.53c-.8-3.73-.13-7.2 1.73-7.6z" fill="#3e000a"/><path d="m792 147c1.07 0 1.33.8 1.6 2.27l2.4 11.73c.27 1.47.27 2.27-.53 2.67-.4.27-.67.4-.53.8.13.4.4.53.93.4.8-.27 2.4-.67 4.93-1.2s4.13-.67 4.93-.8c.53 0 .8-.27.67-.67 0-.4-.27-.53-.8-.53-.93 0-1.2-.8-1.47-2.27l-2-9.73c-.4-2.53-.13-5.2 2.27-5.73 2.4-.4 3.47 2 4 4.67l1.87 9.6c.27 1.47.27 2.27-.53 2.67-.53.27-.8.4-.67.8s.4.53.93.4c.8-.27 2.4-.67 4.93-1.2s4.13-.67 4.93-.8c.53 0 .8-.27.67-.67 0-.4-.27-.4-.93-.53-.93 0-1.2-.8-1.47-2.27l-1.87-9.6c-1.2-5.87-4.13-8.53-9.6-7.47-3.6.67-5.2 2.93-5.87 5.07l-.93-2.67c-.27-.67-.53-.8-1.07-.4-2.93 2.27-5.73 3.6-7.2 4.13-.4.13-.67.4-.53.8.13.4.4.53.93.53z" fill="#3e000a"/><path d="m818 139.8.67-.13 3.07 14.93c.8 3.87 3.33 5.07 7.07 4.27 2.67-.53 3.87-1.6 4.67-3.2.13-.4.13-.67-.53-.67-.27-.13-.53-.13-.93.13-.27.27-.8.4-1.2.27-.53-.13-.93-.67-1.2-1.87l-3.07-15.33 2.13-.4c.53-.13.67-.53.53-1.2-.13-.67-.4-.93-.93-.8l-2.13.4-.8-4.27c0-.53-.53-.67-.93-.53-.4.13-.67.4-.8.8-.53 2.53-3.07 5.2-5.87 5.73h-.13c-.53.13-.67.4-.53 1.07.13.67.27.93.93.8z" fill="#3e000a"/><path d="m845.73 149.53c1.47 1.33 1.2 4.4-1.6 4.93-4.27.93-3.33-6.27-8-5.07-4.27.93-2.27 8.4 8.27 6.27 8-1.6 9.33-6 8.93-9.07-.93-6.8-9.07-5.2-14.13-7.87-1.87-.93-2-4.4 1.33-4.8 3.73-.4 2.13 5.33 7.2 4.27 3.73-.8 2.93-7.6-7.33-5.47-5.6 1.2-8.93 4.8-8.13 8.93 1.47 7.07 10.4 5.07 13.47 7.87z" fill="#3e000a"/><path d="m898.27 125.53c1.07 0 1.33.8 1.6 2.27l2.4 11.73c.27 1.47.27 2.27-.53 2.67-.4.27-.67.4-.53.8.13.4.4.53.93.4.8-.27 2.4-.67 4.93-1.2s4.13-.8 4.93-.93c.53 0 .8-.27.67-.67 0-.4-.27-.53-.8-.53-.93 0-1.2-.8-1.47-2.27l-2-9.73c-.53-2.53-.27-5.2 2.13-5.73s3.47 1.87 4 4.53l2 9.6c.27 1.47.27 2.27-.53 2.67-.4.27-.67.4-.53.8.13.4.4.53.93.4.8-.27 2.4-.67 4.93-1.2s4.13-.8 4.93-.93c.53 0 .8-.27.67-.67 0-.4-.27-.53-.8-.53-.93 0-1.2-.8-1.47-2.27l-2-9.6v-.13c-.53-2.53-.27-5.2 2.13-5.73s3.47 1.87 4 4.53l2 9.6c.27 1.47.27 2.27-.53 2.67-.4.27-.67.4-.53.8.13.4.4.53.93.4.8-.27 2.4-.67 4.93-1.2s4.13-.8 4.93-.93c.53 0 .8-.27.67-.67s-.4-.53-1.2-.13c-.93 0-1.2-.8-1.47-2.27l-2-9.6c-1.2-6-4.13-8.67-9.6-7.47-4 .8-5.6 3.47-6.27 5.73-1.6-2.53-4.13-3.6-7.87-2.8-3.47.8-5.07 3.07-5.73 5.2l-.93-2.67c-.27-.67-.53-.8-1.07-.4-2.93 2.27-5.73 3.6-7.2 4.13-.4.13-.67.4-.53.8.13.4.4.53.93.53z" fill="#3e000a"/><path d="m944 119.27c6.13-.8.13-6.93 4.4-7.87 1.87-.4 2.27 1.73 3.07 5.73l.13.53c-1.6 2.13-12.53 4.27-10.53 12.27.8 3.07 3.6 4.67 7.73 3.87 2.4-.53 5.07-2.4 5.6-5.33 2.13 3.47 6 2.4 8.13 2l.67-.13c.53-.13.93-.4.8-.8s-.53-.27-.93-.53c-.67-.4-.93-2-1.2-3.07-.27-1.47-2.13-9.6-2.13-9.6-1.2-5.6-4.93-7.47-11.47-6.13-10.8 2.13-8.67 9.73-4.27 9.07zm8.27.8 1.07 5.33c.4 1.87-.67 2.93-1.73 3.07-.93.27-2.13-.27-2.53-1.47-1.07-2.93 2-5.87 3.2-6.93z" fill="#3e000a"/><path d="m960.8 105.67c.93 0 1.2.8 1.47 2.27l3.73 18.13c.27 1.47.27 2.27-.53 2.67-.4.27-.67.4-.53.8.13.4.4.53.93.4.8-.27 2.4-.67 4.93-1.2s4.13-.8 4.93-.93c.53 0 .8-.27.67-.67 0-.4-.27-.53-.8-.53-.93 0-1.2-.8-1.47-2.27l-1.2-5.6.4-1.2 4.53 6.13c.53.8 1.07 1.47 1.6 2.13l.4.53c.27.4.67.53 1.07.4.67-.27 1.87-.53 3.73-.93 2-.53 3.6-.67 4.13-.8s.8-.27.67-.67c0-.4-.27-.4-.8-.4-1.07 0-1.6-.8-2.67-2l-9.73-11.87c1.73-3.6 3.2-.27 5.6-.8 3.73-.67 3.6-5.87-.67-6-1.73-.13-4.13.8-5.2 3.47l-3.6 9.47-3.33-15.73c-.13-.67-.53-.8-1.07-.4-2.8 2.27-6.13 3.73-7.6 4.27-.4.13-.67.4-.53.8.13.4.4.53.93.53z" fill="#3e000a"/><path d="m994.93 101.13c-2.8 2.27-6.13 3.73-7.6 4.27-.4.13-.67.4-.53.8.13.4.4.53.93.53.93 0 1.2.8 1.47 2.27l2.4 11.73c.27 1.47.27 2.27-.53 2.67-.4.27-.67.4-.53.8.13.4.4.53.93.4.8-.27 2.4-.67 4.93-1.2s4.13-.8 4.93-.93c.53 0 .8-.27.67-.67s-.4-.53-.93-.4c-.93 0-1.2-.8-1.47-2.27l-3.6-17.6c-.13-.67-.53-.8-1.07-.4z" fill="#3e000a"/><path d="m991.47 101.13c2.67-.67 4.53-2.8 4.13-5.07-.53-2.27-3.07-3.6-5.87-3.07-2.67.53-4.53 2.8-4.13 5.07s3.07 3.6 5.87 3.07z" fill="#3e000a"/><path d="m1000.4 103.8c1.07 0 1.33.8 1.6 2.27l2.4 11.73c.27 1.47.27 2.27-.53 2.67-.4.27-.67.4-.53.8.13.4.4.53.93.4.8-.27 2.4-.67 4.93-1.2 2.53-.4 4.13-.67 4.93-.8.53 0 .8-.27.67-.67 0-.4-.27-.53-.8-.53-.93 0-1.2-.8-1.47-2.27l-2-9.73c-.53-2.53-.27-5.2 2.13-5.73 2.4-.4 3.47 2 4 4.67l2 9.6c.27 1.47.27 2.27-.53 2.67-.4.27-.67.4-.53.8.13.4.4.53.93.4.8-.27 2.4-.67 4.93-1.2 2.53-.4 4.13-.67 4.93-.8.53 0 .8-.27.67-.67s-.4-.4-.93-.67c-.93 0-1.2-.8-1.47-2.27l-2-9.6c-1.2-5.87-4.13-8.53-9.6-7.47-3.6.8-5.2 3.07-5.87 5.2l-.93-2.67c-.27-.67-.53-.8-1.07-.4-2.93 2.27-5.73 3.6-7.2 4.13-.4.13-.67.4-.53.8.13.4.4.53.93.53z" fill="#3e000a"/><path d="m1032.93 108.47c-.8.67-3.6 2.93-2.53 6 .53 1.73 2 2.27 3.73 2.4-1.2.8-2.13 2-1.73 3.33.67 2.13 4.93 2.67 10.4 1.6 6.93-1.47 13.33-5.2 12.13-10.27-.93-4-5.2-3.87-12.8-1.2-4 1.33-7.2 2-8.13 1.2-.53-.4-.53-1.33.4-2.67 1.47.27 3.33.13 5.2-.27 6.4-1.33 11.87-5.33 11.07-10.8-.53-3.47-2.53-5.6-5.73-6.27.53-2.13 3.73-.53 5.2-2 1.73-1.33.53-4-1.87-3.73-2.8.4-4.4 2.93-4.4 5.47-1.6-.13-3.47 0-5.47.4-6.27 1.2-11.47 5.2-10.67 10.67.53 3.33 2.4 5.33 5.2 6.13zm4.4 8c1.73-.27 3.6-.93 5.2-1.47 4-1.33 5.33-1.2 5.6.13.4 1.47-.8 4-5.73 5.07-3.6.8-5.6.13-5.73-1.6-.13-1.07.4-1.73.67-2.13zm-1.2-22.93c1.6-.8 3.73.8 5.73 5.07 1.87 4.27 1.73 7.33.27 7.87-1.73.67-4-1.2-5.87-5.47s-2-6.67-.13-7.47z" fill="#3e000a"/><path d="m1061.07 91.53c.93 0 1.2.8 1.47 2.27l2.27 11.73c.27 1.47.27 2.27-.53 2.67-.53.27-.8.4-.67.8s.4.53.93.4c.8-.13 2.4-.53 4.93-1.07s4.13-.67 4.93-.8c.53 0 .8-.27.67-.67 0-.4-.27-.53-.8-.53-.93 0-1.2-.8-1.47-2.27l-1.87-9.73c-.53-2.67-.13-5.33 2.27-5.73s3.47 2 4 4.67l1.87 9.6c.27 1.47.27 2.27-.53 2.67-.53.27-.8.4-.67.8s.4.53.93.4c.8-.13 2.4-.53 4.93-1.07s4.13-.67 4.93-.8c.53 0 .8-.27.67-.67 0-.4-.27-.53-.8-.53-.93 0-1.2-.8-1.47-2.27l-1.87-9.6v-.13c-.53-2.67-.13-5.33 2.27-5.73 2.27-.4 3.33 2 3.87 4.67l1.87 9.6c.27 1.47.27 2.27-.53 2.67-.53.27-.8.4-.67.8s.4.53.93.4c.8-.13 2.4-.53 4.93-1.07s4.13-.67 4.93-.8c.53 0 .8-.27.67-.67s-.4-.4-.53-.67c-.93 0-1.2-.8-1.47-2.27l-1.87-9.6c-1.07-6-4-8.67-9.47-7.6-4 .8-5.73 3.33-6.4 5.6-1.6-2.53-4.13-3.47-7.87-2.8-3.6.67-5.2 2.93-5.87 5.07l-.93-2.67c-.27-.67-.53-.8-1.07-.4-2.93 2.13-5.73 3.47-7.2 4-.4.13-.67.4-.53.8 0 .4.27.53.8.53z" fill="#3e000a"/><path d="m1115.87 100.33c7.07-1.33 10.53-7.2 9.33-13.6-1.2-6.27-6.53-10.67-13.6-9.33-7.07 1.33-10.53 7.33-9.33 13.6 1.2 6.4 6.53 10.67 13.6 9.33zm-6.13-20.93c2.4-1.07 5.07 3.07 7.07 8.13 2 5.07 3.2 9.73.93 10.8-2.4 1.07-5.07-3.07-7.07-8.13-2-5.07-3.2-9.73-.93-10.8z" fill="#3e000a"/><path d="m1126 79.13c.93 0 1.2.8 1.47 2.27l2.13 11.87c.27 1.47.27 2.27-.53 2.67-.53.27-.8.4-.67.8s.4.53.93.4c.8-.27 2.4-.67 4.93-1.07s4.13-.53 4.93-.67c.4 0 .8-.27.67-.67 0-.4-.27-.53-.8-.53-.93 0-1.2-.8-1.47-2.27l-1.73-9.87c-.4-2.53 0-5.2 2.4-5.6 2.4-.53 3.33 2 3.87 4.67l1.73 9.6c.27 1.47.27 2.27-.53 2.67-.53.27-.8.4-.67.8s.4.53.93.4c.8-.27 2.4-.67 4.93-1.07s4.13-.53 4.93-.67c.4 0 .8-.27.67-.67 0-.4-.27-.53-.8-.53-.93 0-1.2-.8-1.47-2.27l-1.73-9.6v-.13c-.53-2.53-.13-5.2 2.27-5.6 2.4-.53 3.33 2 3.87 4.67l1.73 9.6c.27 1.47.27 2.27-.53 2.67-.53.27-.67.4-.67.8.13.4.4.53.93.4.8-.27 2.4-.67 4.93-1.07s4.13-.53 4.93-.67c.4 0 .8-.27.67-.67s-.4-.53-.4-.67c-.93 0-1.2-.8-1.47-2.27l-1.73-9.6c-1.07-6-4-8.67-9.47-7.73-4.13.67-5.87 3.2-6.53 5.47-1.47-2.53-4-3.6-7.73-2.93-3.6.53-5.33 2.8-6 4.93l-.8-2.67c-.27-.53-.53-.8-1.07-.4-2.93 2.13-5.87 3.33-7.33 3.87-.4.13-.67.4-.53.8 0 .4.27.53.8.53z" fill="#3e000a"/><path d="m1180.8 88.73c5.07-.8 7.2-4.13 7.87-5.47.13-.4.13-.8-.13-.93-.27-.27-.53-.13-.93 0-5.33 2.53-9.73.8-12-4.4-.27-.4-.4-.93-.53-1.33l11.87-2c.4 0 .67-.27.67-.8 0-2.93-2.93-9.33-11.33-8-6.8 1.2-10.4 7.6-8.8 14.13 1.6 6.27 7.07 9.87 13.33 8.8zm-4.4-21.6c1.87-.27 3.2 2.4 3.6 4.53.4 2-.13 2.13-2.67 2.53l-2.93.53c-.67-3.73.13-7.33 2-7.6z" fill="#3e000a"/><path d="m1189.2 68.33c.93.13 1.2.93 1.47 2.4l1.87 11.87c.13 1.47.13 2.27-.67 2.67-.53.27-.67.4-.67.8.13.4.4.53.93.4.8-.13 2.4-.53 4.93-.93 2.67-.4 4.27-.67 5.07-.67.4 0 .67-.27.67-.67s-.27-.53-.8-.53c-.93-.13-1.2-.93-1.47-2.4l-1.6-9.87c-.4-2.53 0-5.2 2.4-5.6s3.33 2.13 3.73 4.8l1.6 9.73c.13 1.47.13 2.27-.67 2.67-.53.27-.67.4-.67.8.13.4.4.53.93.4.8-.13 2.4-.53 4.93-.93 2.67-.4 4.27-.67 5.07-.67.4 0 .67-.27.67-.67-.13-.4-.4-.53-.8-.53-.93-.13-1.2-.93-1.47-2.4l-1.33-9.73c-.93-6-3.73-8.8-9.2-7.87-3.6.67-5.2 2.8-6 4.93l-.8-2.67c-.27-.53-.53-.8-1.07-.4-2.93 2-5.87 3.33-7.33 3.73-.4.13-.53.4-.53.8s.27.53.8.53z" fill="#3e000a"/><path d="m1215.33 62.2.67-.13 2.27 15.07c.53 4 3.07 5.2 6.8 4.67 2.67-.4 4-1.33 4.8-2.93.27-.53.13-.8-.13-.93-.27-.27-.53-.13-.93 0s-.93.27-1.33.13c-.53-.13-.93-.67-1.07-1.87l-2.4-15.47 2.13-.27c.67 0 .8-.27.67-1.07-.13-.67-.4-.93-.93-.8l-2.13.27-.67-4.27c0-.67-.53-.67-.93-.67-.4.13-.67.4-.8.8-.67 2.53-3.33 5.07-6.13 5.47h-.13c-.67.13-.8.4-.67 1.07.13.8.27 1.07.93.93z" fill="#3e000a"/><path d="m1242.4 73.4c1.33 1.47.93 4.53-1.87 4.93-4.4.67-2.93-6.53-7.73-5.6-4.27.8-2.8 8.4 7.87 6.8 8-1.2 9.73-5.47 9.47-8.53-.53-6.8-8.8-5.73-13.6-8.67-1.87-1.07-1.73-4.53 1.6-4.8 3.73-.27 1.87 5.47 6.93 4.67 3.87-.53 3.47-7.47-6.93-5.87-5.73.8-9.33 4.27-8.67 8.4.93 7.2 10.13 5.6 12.93 8.67z" fill="#3e000a"/><path d="m1297.07 52.73c.93.13 1.2.93 1.33 2.4l1.2 12c.13 1.47.13 2.4-.8 2.67-.4.27-.67.4-.67.8.13.27.4.53.93.4.93-.13 2.53-.4 5.07-.67 2.53-.27 4.27-.4 5.07-.4.53 0 .8-.27.8-.67s-.27-.53-.8-.53c-.93-.13-1.2-.93-1.33-2.4l-1.07-9.87c-.4-2.53.27-5.2 2.67-5.47s3.2 2.27 3.47 4.93l1.07 9.73c.13 1.47.13 2.4-.8 2.67-.4.27-.67.4-.67.8.13.27.4.53.93.4.93-.13 2.53-.4 5.07-.67 2.53-.27 4.27-.4 5.07-.4.53 0 .8-.27.8-.67s-.27-.53-.8-.53c-.93-.13-1.2-.93-1.33-2.4l-1.07-9.73v-.13c-.4-2.53.27-5.2 2.67-5.47s3.2 2.27 3.47 4.93l1.07 9.73c.13 1.47.13 2.4-.8 2.67-.4.27-.67.4-.67.8.13.27.4.53.93.4.93-.13 2.53-.4 5.07-.67 2.53-.27 4.13-.4 5.07-.4.53 0 .8-.27.8-.67-.13-.4-.4-.53-.67-.67-.93-.13-1.2-.93-1.33-2.4l-1.07-9.73c-.67-6-3.33-8.93-8.8-8.4-4.13.4-6 2.8-6.93 5.07-1.47-2.8-3.87-4-7.6-3.6-3.6.4-5.33 2.4-6.27 4.53l-.67-2.8c-.13-.53-.4-.8-.93-.4-3.2 1.87-6.13 2.93-7.6 3.33-.53.13-.67.4-.67.8s.27.67.8.67z" fill="#3e000a"/><path d="m1339.07 62.07c.4 3.2 3.07 5.07 7.2 4.8 2.53-.13 5.33-1.6 6.27-4.53 1.6 3.73 5.47 3.07 7.73 2.93h.67c.53 0 .8-.27.8-.67s-.4-.4-.8-.8c-.53-.53-.67-2.13-.8-3.2-.13-1.47-.93-9.73-.93-9.73-.53-5.6-4-8-10.67-7.47-10.93.93-9.87 8.67-5.33 8.53 6.27-.13 1.2-7.07 5.47-7.33 2-.13 2.13 2.13 2.4 6.13v.53c-1.87 2-12.93 2.67-12 10.8zm12.27-8.4.4 5.47c.27 1.73-.93 2.8-2.13 2.8-1.07.13-2.13-.4-2.4-1.73-.67-3.2 2.8-5.6 4.13-6.53z" fill="#3e000a"/><path d="m1362 40.47c.93.27 1.07 1.07 1.2 2.53l1.07 18.4c.13 1.47.13 2.27-.8 2.53-.4.13-.67.27-.67.67s.27.53.8.53c.93-.13 2.53-.27 5.07-.4 2.67-.13 4.13-.13 5.07-.13.53.13.8-.13.8-.53s-.27-.53-.8-.67c-.93-.27-1.07-1.07-1.2-2.53l-.27-5.73.67-1.2 3.6 6.8c.4.8.8 1.47 1.2 2.27l.27.53c.27.4.67.53 1.07.53.67 0 1.73-.13 3.73-.27 2-.13 3.6-.13 4.13-.13s.8-.13.8-.53-.27-.53-.93-.4c-.93-.27-1.47-1.07-2.27-2.4l-7.87-13.2c2.27-3.33 3.2.13 5.6 0 3.6-.27 4.4-5.33.13-6.13-1.6-.4-4.13.13-5.6 2.67l-4.93 8.8-.93-16c0-.67-.4-.8-.93-.53-3.07 1.87-6.67 2.8-8.13 3.07-.4.13-.67.4-.67.8s.27.53.8.67z" fill="#3e000a"/><path d="m1393.33 40.6c2.8-.13 5.07-2 4.93-4.27-.13-2.4-2.53-4.13-5.33-4s-5.07 2.13-4.93 4.4 2.53 3.87 5.33 3.87z" fill="#3e000a"/><path d="m1388.8 45.4c.8.27 1.07 1.07 1.07 2.53l.4 12c0 1.47 0 2.27-.93 2.53-.4.13-.67.27-.67.67s.27.53.8.53c.93-.13 2.53-.27 5.07-.4h5.07c.53 0 .8-.13.8-.53s-.27-.53-.8-.53c-.8-.27-.93-1.07-1.07-2.53l-.67-18c0-.67-.4-.8-.93-.53-3.2 1.73-6.8 2.67-8.27 2.93-.4 0-.67.27-.67.67s.4.53.8.67z" fill="#3e000a"/><path d="m1402.13 45c.93.27 1.07 1.07 1.07 2.53l.27 12c0 1.47 0 2.27-.93 2.53-.53.13-.8.27-.8.67s.27.53.8.53c.93-.13 2.53-.27 5.07-.27 2.53-.13 4.27 0 5.07 0 .53 0 .8-.13.8-.53s-.27-.53-.8-.67c-.93-.27-1.07-1.07-1.07-2.53l-.27-10c0-2.53.8-5.2 3.2-5.2 2.4-.13 3.07 2.4 3.07 5.2l.27 9.87c0 1.47 0 2.27-.93 2.53-.53.13-.8.27-.8.67s.27.53.8.53c.93-.13 2.53-.27 5.07-.27 2.53-.13 4.13 0 5.07 0 .53 0 .8-.13.8-.53s-.27-.53-.53-.4c-.93-.27-1.07-1.07-1.07-2.53l-.27-9.87c-.13-6-2.53-9.2-8.13-9.07-3.6 0-5.6 2-6.67 4l-.4-2.8c0-.53-.4-.8-.93-.53-3.33 1.73-6.4 2.53-7.87 2.8-.4 0-.67.27-.67.67s.27.53.8.67z" fill="#3e000a"/><path d="m1432.93 55.13c-.93.4-4.13 2.13-3.73 5.33.27 1.73 1.47 2.67 3.2 3.07-1.33.53-2.53 1.47-2.4 2.8.27 2.13 4.27 3.6 9.87 3.6 7.07 0 14-2.4 13.87-7.6 0-4.13-4.27-4.8-12.27-3.73-4.13.53-7.47.53-8.13-.4-.53-.53-.27-1.47.93-2.53 1.47.53 3.2.8 5.2.8 6.67.13 12.67-2.67 13.07-8.27.27-3.47-1.33-5.87-4.27-7.2.93-2 3.87.27 5.2-.67 2-1.07 1.33-3.87-1.07-4.13-2.8-.27-4.93 2-5.33 4.4-1.47-.53-3.2-.8-5.33-.8-6.53-.13-12.27 2.67-12.67 8.27-.13 3.33 1.2 5.73 3.87 7.07zm2.8 8.8c1.87.13 3.87-.13 5.47-.4 4.13-.4 5.47-.13 5.47 1.33 0 1.6-1.6 3.73-6.67 3.87-3.73 0-5.47-1.07-5.33-2.8.13-1.07.67-1.73 1.07-2zm3.47-22.67c1.87-.53 3.6 1.6 4.67 6.13s.27 7.47-1.33 7.73c-1.87.27-3.6-2-4.67-6.53s-.67-6.93 1.33-7.33z" fill="#3e000a"/><path d="m1463.33 62.47c.93 0 2.53 0 5.07.13 2.67.13 4.13.27 5.07.4.4 0 .8-.13.8-.53s-.27-.53-.67-.67c-.93-.27-.93-1.07-.93-2.53l.53-10c.13-2.67 1.07-5.2 3.47-5.07s2.8 2.8 2.67 5.47l-.4 9.87c0 1.47-.13 2.4-1.07 2.53-.53.13-.8.27-.8.67s.27.53.8.53c.93 0 2.53 0 5.07.13 2.67.13 4.13.27 5.07.4.4 0 .8-.13.8-.53s-.27-.53-.67-.67c-.93-.27-1.07-1.07-.93-2.53l.4-9.87v-.13c.13-2.67 1.2-5.2 3.6-5.07s2.8 2.8 2.67 5.47l-.4 9.87c0 1.47-.13 2.4-1.07 2.53-.53.13-.8.27-.8.67s.27.53.8.53c.93 0 2.53 0 5.07.13 2.67.13 4.13.27 5.07.4.4 0 .8-.13.8-.53s-.27-.53-.4-1.2c-.93-.27-1.07-1.07-.93-2.53l.4-9.87c.27-6-1.87-9.33-7.47-9.6-4.13-.13-6.4 2-7.6 4-.93-2.93-3.2-4.53-6.93-4.67-3.73-.13-5.73 1.6-6.93 3.6l-.27-2.8c-.13-.53-.4-.8-.93-.53-3.33 1.47-6.53 2.13-8 2.27-.53 0-.8.27-.8.67-.13.4.27.67.67.8.93.27 1.07 1.07.93 2.53l-.53 12c-.13 1.47-.27 2.4-1.2 2.53-.53.13-.8.27-.8.67s.27.53.8.53z" fill="#3e000a"/><path d="m1515.47 66.33c7.07.53 12-4.27 12.53-10.67s-3.47-12-10.67-12.53-12 4.27-12.53 10.67 3.47 12 10.67 12.53zm-.53-21.87c2.53-.27 4 4.27 4.67 9.73.67 5.33.67 10.27-1.87 10.67-2.53.27-4-4.27-4.67-9.73-.53-5.33-.53-10.13 1.87-10.67z" fill="#3e000a"/><path d="m1528.67 66.73c.93 0 2.53.13 5.07.4 2.53.4 4.13.67 4.93.8.53.13.93 0 .93-.4s-.27-.67-.67-.8c-.8-.4-.8-1.2-.67-2.67l1.2-9.87c.27-2.53 1.47-4.93 3.87-4.67 2.4.27 2.53 2.93 2.27 5.6l-1.2 9.73c-.13 1.47-.4 2.27-1.33 2.4-.53 0-.8.13-.8.53s.27.67.8.67c.93 0 2.53.13 5.07.4 2.53.4 4.13.67 4.93.8.53.13.93 0 .93-.4s-.27-.67-.67-.8c-.8-.4-.8-1.2-.67-2.67l1.2-9.73v-.13c.27-2.53 1.47-4.93 3.87-4.67 2.4.27 2.53 2.93 2.27 5.6l-1.2 9.73c-.27 1.47-.4 2.27-1.33 2.4-.53 0-.8.13-.8.53s.27.67.8.67c.93 0 2.53.13 5.07.4 2.67.4 4.27.67 5.07.8.53.13.93 0 .93-.4s-.27-.53-.8-.8c-.8-.4-.8-1.2-.67-2.67l1.2-9.73c.67-6-1.33-9.47-6.8-10.13-4.13-.53-6.53 1.33-7.87 3.33-.67-2.8-2.8-4.67-6.53-5.07-3.6-.4-5.87 1.2-7.2 3.07v-2.8c-.13-.67-.4-.93-.93-.67-3.47 1.2-6.67 1.6-8.13 1.6-.53.13-.8.27-.8.67s.27.67.67.8c.93.4.93 1.2.8 2.67l-1.47 11.87c-.27 1.47-.4 2.27-1.33 2.4-.53 0-.8.13-.8.53s.27.67.8.67z" fill="#3e000a"/><path d="m1580.27 74.07c5.07.8 8.13-1.6 9.2-2.67.4-.4.4-.67.27-.93-.13-.27-.53-.27-.93-.27-5.87.67-9.47-2.4-10-8v-1.47l12 1.87c.4.13.8-.13.93-.53.93-2.8.13-9.73-8.27-11.07-6.93-1.07-12.4 3.87-12.93 10.53-.67 6.4 3.33 11.47 9.73 12.53zm3.07-21.87c1.73.4 2.13 3.33 1.87 5.47-.27 2-.8 2-3.33 1.6l-2.8-.53c.53-3.73 2.4-6.8 4.27-6.53z" fill="#3e000a"/><path d="m1591.07 74.87c-.13.4.13.67.67.67.8.13 2.4.27 4.93.8 2.53.4 4.13.8 4.93 1.07.53.13.8 0 .93-.4 0-.4-.27-.53-.67-.8-.8-.4-.8-1.2-.53-2.67l1.87-9.73c.53-2.53 1.87-4.8 4.27-4.4 2.27.4 2.4 3.07 1.87 5.73l-1.87 9.6c-.27 1.47-.53 2.27-1.47 2.27-.4 0-.67.13-.8.53s.13.67.67.67c.8.13 2.4.27 4.93.8 2.53.4 4.13.8 4.93 1.07.53.13.8 0 .93-.4 0-.4-.27-.67-.4-.67-.8-.4-.8-1.2-.53-2.67l1.87-9.6c1.2-5.87-.53-9.47-6-10.53-3.6-.67-5.87.8-7.33 2.53l.13-2.8c0-.53-.27-.93-.8-.67-3.6.93-6.8 1.07-8.27 1.07-.4 0-.67.13-.8.53s.13.53.53.8c.8.4.8 1.2.53 2.67l-2.27 11.73c-.27 1.47-.53 2.27-1.47 2.27-.4 0-.8.13-.8.53z" fill="#3e000a"/><path d="m1624.27 82.47c2.53.67 4.13.27 5.47-.93.4-.4.53-.67.4-1.2-.13-.27-.53-.27-.93-.27s-.93 0-1.2-.27c-.4-.27-.53-.93-.27-2.13l3.33-15.2 2 .4c.53.13.8-.13.93-.8s0-.93-.53-1.07l-2.13-.4.93-4.13c.13-.67-.27-.8-.67-.93-.53-.13-.8 0-1.07.4-1.6 2-4.93 3.47-7.73 2.8h-.13c-.53-.13-.8.13-.93.8-.13.8-.13 1.07.53 1.2l.67.13-3.33 14.8c-.93 4 .93 6 4.67 6.8z" fill="#3e000a"/><path d="m1643.2 81c.67 1.87-.8 4.53-3.6 3.87-4.27-1.07-.27-7.2-5.07-8.13-4.27-.93-5.6 6.67 4.8 9.2 7.87 1.87 11.07-1.47 12-4.4 2.13-6.53-5.87-8.53-9.33-13.07-1.2-1.6.13-4.8 3.33-3.73 3.6 1.2-.27 5.73 4.67 6.93 3.87.93 6-5.6-4.4-8.13-5.6-1.33-10.13.53-11.2 4.67-1.73 6.93 7.33 8.93 8.8 12.8z" fill="#3e000a"/><path d="m1696.27 101.93c.8.27 2.4.67 4.8 1.6 2.4.8 3.87 1.47 4.67 1.87.4.13.8.13.93-.27s-.13-.67-.53-.93c-.67-.53-.53-1.47 0-2.8l3.47-9.33c.93-2.53 2.67-4.53 4.93-3.73 2.27.8 1.87 3.47.93 6l-3.47 9.2c-.53 1.33-.93 2.13-1.87 2-.53 0-.8 0-.93.4s0 .67.53.8c.8.27 2.4.67 4.8 1.6 2.4.8 3.87 1.47 4.67 1.87.4.13.8.13.93-.27s0-.67-.4-.93c-.8-.53-.67-1.47-.13-2.8l3.47-9.2v-.13c.93-2.53 2.67-4.53 4.93-3.73 2.27.8 1.87 3.47.93 6l-3.47 9.2c-.53 1.33-.93 2.13-1.87 2-.53 0-.8 0-.93.4s0 .67.53.8c.8.27 2.4.67 4.8 1.6 2.4.8 3.87 1.47 4.67 1.87.4.13.8.13.93-.27s-.13-.53.13-.4c-.8-.53-.67-1.47-.13-2.8l3.33-9.2c2-5.6.93-9.47-4.27-11.33-3.87-1.47-6.67-.13-8.4 1.47 0-3.07-1.73-5.2-5.2-6.53-3.47-1.2-6-.13-7.73 1.33l.67-2.8c.13-.53 0-.93-.67-.8-3.6.4-6.8 0-8.27-.27-.53-.13-.8 0-.93.4s0 .67.4.93c.8.53.67 1.33.13 2.8l-4.13 11.2c-.53 1.33-.93 2.13-1.87 2-.53 0-.8 0-.93.4s0 .67.53.8z" fill="#3e000a"/><path d="m1744.27 104.07c5.6 2.93 4.27-5.6 8.27-3.87 1.73.8.8 2.8-.8 6.53l-.27.53c-2.67.8-12.8-3.6-15.73 4-1.07 3.07.27 6 4.13 7.6 2.27.93 5.47.93 7.6-1.2-.27 4.13 3.47 5.33 5.47 6.27l.53.27c.53.13.93.13 1.07-.27.27-.4-.13-.53-.27-1.07-.27-.67.4-2.27.8-3.2.53-1.33 3.73-9.07 3.73-9.07 2.27-5.2.27-8.93-5.87-11.6-10-4.27-12.67 3.07-8.67 5.07zm4 10.4c-.67 1.6-2.13 2-3.2 1.6s-1.73-1.33-1.33-2.67c.93-3.07 5.07-3.6 6.67-3.87l-2.13 4.93z" fill="#3e000a"/><path d="m1766.4 103.13c.8.53.53 1.33-.13 2.67l-8 16.67c-.67 1.33-1.07 2-2 1.87-.4-.13-.8-.13-.93.27-.13.27.13.67.53.8.8.27 2.27.93 4.67 2s3.73 1.87 4.53 2.27c.4.27.8.27.93-.13s0-.67-.4-.93c-.8-.53-.53-1.33.13-2.67l2.4-5.2 1.07-.67-.13 7.73v3.2c0 .4.27.8.67.93.67.13 1.73.67 3.47 1.47 1.87.8 3.2 1.6 3.73 1.87.4.27.8.13.93-.13.27-.27 0-.53-.4-.67-.67-.67-.67-1.6-.8-3.2l-.53-15.33c3.6-1.87 2.8 1.6 4.93 2.67 3.33 1.6 6.4-2.53 3.07-5.2-1.33-1.07-3.87-1.73-6.27-.27l-8.53 5.33 6.93-14.4c.27-.53 0-.93-.67-.93-3.6.13-7.2-.8-8.67-1.2-.4-.13-.8-.13-.93.27-.13.27 0 .67.4.93z" fill="#3e000a"/><path d="m1787.6 120.47c.67.53.4 1.33-.27 2.67l-5.6 10.67c-.8 1.2-1.2 2-2.13 1.73-.4-.13-.8-.13-.93.27-.27.27 0 .67.4.8.8.27 2.27.93 4.53 2.13 2.27 1.07 3.73 2 4.4 2.4.4.27.8.27.93-.13.27-.4.13-.67-.13-.53-.67-.53-.4-1.33.27-2.67l8.27-16c.27-.53.13-.93-.53-.93-3.6-.13-7.07-1.07-8.53-1.6-.4-.13-.8-.13-.93.27-.27.27-.13.67.27.93z" fill="#3e000a"/><path d="m1793.87 118.2c2.53 1.33 5.33.8 6.4-1.2s-.13-4.67-2.67-6c-2.4-1.33-5.33-.67-6.4 1.33s.13 4.67 2.67 5.87z" fill="#3e000a"/><path d="m1799.07 125.13c-.27.27-.13.67.27.93.8.53.53 1.33-.27 2.67l-5.87 10.4c-.67 1.33-1.2 2-2.13 1.73-.4-.13-.67-.13-.93.27s0 .67.4.93c.67.4 2.13 1.2 4.4 2.4 2.13 1.33 3.6 2.13 4.27 2.67.4.27.8.27.93-.13.27-.27.13-.67-.27-.93-.67-.53-.4-1.33.4-2.67l4.93-8.67c1.33-2.4 3.33-4.13 5.47-2.93 2.13 1.2 1.33 3.73 0 6.13l-4.8 8.53c-.67 1.33-1.2 2-2.13 1.73-.4-.13-.8-.13-.93.27-.27.4 0 .67.4.93.8.4 2.27 1.07 4.53 2.4s3.6 2.13 4.27 2.67c.4.27.8.27.93-.13s0-.67-.4-1.2c-.67-.53-.27-1.33.4-2.67l4.8-8.53c2.93-5.2 2.4-9.2-2.4-11.87-3.2-1.87-5.87-1.2-7.73 0l1.07-2.67c.27-.53.13-.93-.53-.93-3.6-.27-6.67-1.07-8.13-1.6-.4-.13-.8-.13-.93.27z" fill="#3e000a"/><path d="m1814.93 153.8c-.8 1.6-.13 2.93 1.07 4.27-1.47-.13-2.93 0-3.6 1.2-.93 2 1.87 5.33 6.53 8.27 6 3.73 13.2 5.47 15.87.93 2-3.47-1.2-6.27-8.53-9.6-3.73-1.73-6.53-3.47-6.67-4.67-.13-.8.53-1.47 2.13-1.73.93 1.2 2.4 2.27 4 3.33 5.6 3.47 12.27 4.27 15.47-.27 2-2.8 2-5.73.13-8.4 1.87-1.2 3.07 2.27 5.07 2.27 2.27.13 3.2-2.53 1.2-4-2.27-1.73-5.2-.93-6.93.93-.93-1.2-2.4-2.4-4.13-3.47-5.47-3.47-11.87-4.13-15.07.4-2 2.67-2 5.47-.53 8-1.07-.13-4.67-.4-6 2.53zm8.67 8.93c3.73 1.73 4.67 2.67 3.87 3.87-.93 1.33-3.33 2.4-7.73-.27-3.2-1.87-4.13-3.73-3.07-5.07.53-.93 1.33-1.2 1.87-1.2 1.47.93 3.33 1.87 5.07 2.67zm4.8-14.53c1.6-4.53 3.07-6.27 5.07-5.6 1.73.53 2.27 3.2.67 7.6-1.47 4.4-3.73 6.53-5.2 6-1.73-.67-2.13-3.6-.53-8z" fill="#3e000a"/><path d="m1846.27 171c-.93 1.2-1.47 1.87-2.4 1.47-.53-.13-.8-.13-1.07.13-.27.27-.13.67.27.93.67.53 2 1.33 4.13 2.93 2.13 1.47 3.33 2.53 4 3.07.27.27.67.27.93 0 .13-.27 0-.53-.27-.93-.67-.8-.27-1.47.67-2.67l6-8c1.6-2 3.73-3.6 5.73-2.13 1.87 1.47.8 3.87-.8 6l-5.87 7.87c-.93 1.2-1.6 1.87-2.4 1.47-.53-.13-.8-.13-1.07.13-.27.27-.13.67.27.93.67.53 2 1.33 4.13 2.93 2.13 1.47 3.33 2.53 4 3.07.4.27.67.27.93 0 .13-.27 0-.53-.27-.93-.67-.8-.27-1.47.67-2.67l5.87-7.87.13-.13c1.6-2 3.73-3.6 5.73-2.13 1.87 1.47.8 3.87-.8 6l-5.87 7.87c-.93 1.2-1.47 1.87-2.4 1.47-.53-.13-.8-.13-1.07.13-.27.27-.13.67.27.93.67.53 2 1.33 4.13 2.93 2.13 1.47 3.33 2.53 4 3.07.4.27.67.27.93 0 .27-.4.13-.67.8-1.07-.67-.8-.27-1.47.67-2.67l5.87-7.87c3.47-4.8 3.47-8.8-.93-12.13-3.33-2.53-6.27-2-8.4-.93.8-2.93-.13-5.47-3.2-7.73-2.93-2.27-5.6-1.87-7.73-.93l1.33-2.53c.27-.4.27-.8-.4-.93-3.6-.53-6.53-1.87-7.87-2.53-.4-.27-.67-.13-.93.13-.27.4-.13.67.13 1.07.67.8.27 1.47-.67 2.67l-7.2 9.6z" fill="#3e000a"/><path d="m1881.87 189.27c-4.13 4.93-4.13 11.73 1.47 16.4 5.47 4.53 12.27 3.47 16.4-1.47 4.13-4.93 4-11.73-1.47-16.4s-12.27-3.47-16.4 1.47zm6 5.87c2.53-4.67 5.33-8.67 7.73-7.6 2.27 1.2.8 5.87-1.87 10.67s-5.47 8.67-7.73 7.6c-2.27-1.2-.8-5.87 1.87-10.67z" fill="#3e000a"/><path d="m1915.6 232.6c-.53-.27-.8-.27-1.07 0s-.13.67.27.93c.67.53 1.87 1.6 3.73 3.33.55.51 1.03.97 1.47 1.39v-8.79l-1.87 1.94c-1.07 1.2-1.73 1.6-2.53 1.2z" fill="#3e000a"/><path d="m1913.2 206.07 1.73-2.27c.4-.53.4-.93-.27-1.07-3.47-1.2-6.27-2.8-7.47-3.6-.4-.27-.67-.27-.93 0-.27.27-.27.67 0 1.07.4.8 0 1.47-1.07 2.53l-8.27 8.67c-1.07 1.2-1.73 1.6-2.53 1.2-.53-.27-.8-.27-1.07 0s-.13.67.27.93c.67.53 1.87 1.6 3.73 3.33 1.87 1.73 3.07 2.93 3.6 3.6.27.4.67.4.93.13.27-.27.13-.53-.13-.93-.4-.8 0-1.47 1.07-2.53l6.93-7.2c1.87-1.87 4.27-3.2 6-1.47 1.87 1.6.4 3.87-1.47 5.87l-6.8 7.07c-1.07 1.2-1.73 1.6-2.53 1.2-.53-.27-.8-.27-1.07 0s-.13.67.27.93c.67.53 1.87 1.6 3.73 3.33 1.87 1.73 3.07 2.93 3.6 3.6.27.4.67.4.93.13.4-.27.27-.53 0-.93-.4-.8 0-1.47 1.07-2.53l6.53-6.79v-13.08c-2.42-1.84-4.88-1.8-6.8-1.2z" fill="#3e000a"/><path d="m471.73 211 16.93-1.2c4.4-.27 6.93-6.4 1.47-12-1.73-1.87-3.87-3.6-5.73-5.33-3.6-3.47-4.8-6.13-5.6-8.8 0-.13-.13-.27-.4-.27s-.4.27-.4.4c-.53 2.8-1.33 5.6-4.4 9.47-1.6 2-3.33 3.87-4.93 6-4.53 6.4-1.2 12 3.07 11.73z" fill="#3e000a"/><path d="m870.53 150.2 16.8-3.6c4.27-.8 5.87-7.2-.27-12-2.13-1.6-4.4-2.93-6.53-4.4-4-2.8-5.6-5.33-6.8-7.87 0-.13-.13-.27-.4-.27s-.27.27-.27.4c-.13 2.8-.53 5.73-3.07 10-1.33 2.13-2.93 4.4-4.13 6.67-3.6 6.8.4 12 4.67 11.07z" fill="#3e000a"/><path d="m1266.93 75.67 16.93-2.4c4.27-.53 6.4-6.67.67-12-2-1.73-4.13-3.33-6.13-4.93-3.73-3.2-5.2-5.87-6.13-8.4 0-.13-.13-.27-.4-.27-.13 0-.27.27-.27.4-.27 2.8-.93 5.73-3.73 9.73-1.6 2.13-3.2 4.27-4.67 6.4-4.27 6.53-.53 12 3.73 11.47z" fill="#3e000a"/><path d="m1664.67 92.73 16.27 4.93c4.13 1.33 8.67-3.47 5.6-10.67-.93-2.4-2.4-4.8-3.47-7.07-2.13-4.4-2.27-7.33-2.13-10.13 0-.13 0-.4-.27-.4-.13 0-.27.13-.4.27-1.33 2.27-3.2 4.67-7.47 7.2-2.13 1.33-4.67 2.4-6.8 3.87-6.53 4.27-5.47 10.67-1.33 12z" fill="#3e000a"/><path d="m89.2 164.87c-2.4-4.27-2.8-7.2-2.8-10 0-.13 0-.4-.27-.4-.13 0-.27.13-.4.27-1.2 2.4-2.8 4.93-6.93 7.73-2.13 1.33-4.4 2.67-6.53 4.27-6.27 4.67-4.8 11.07-.53 12l16.67 4c4.13.93 8.4-4.13 4.8-11.07-1.2-2.4-2.67-4.53-4-6.8z" fill="#3e000a"/><path d="m1265.6 154.47c2.4-1.07 1.33-5.73-.53-10.8-1.87-5.2-4.27-9.33-6.8-8.4-2.27 1.07-1.2 5.73.53 10.8 1.87 5.2 4.27 9.33 6.8 8.4z" fill="#5a357b"/><path d="m769.2 249.27c2.27-1.07 1.07-5.73-.93-10.67-2-5.07-4.67-9.07-7.07-8.13-2.4 1.07-1.07 5.73.93 10.67 2 5.07 4.67 9.07 7.07 8.13z" fill="#5a357b"/><path d="m1310.67 142.07c1.6-.4 2-3.47.53-7.73-1.6-4.4-3.6-6.27-5.33-5.6-2 .67-2 3.07-.53 7.47s3.6 6.4 5.33 5.87z" fill="#5a357b"/><path d="m245.6 280.87c2.27.13 3.73-2.8 4.27-9.6.27-5.2-1.2-7.73-3.47-7.73s-3.73 3.87-4.13 9.07 1.07 8.27 3.33 8.27z" fill="#5a357b"/><path d="m1728.13 177.27c.8-2 1.2-4.93-.53-5.73s-4.4 1.73-5.87 5.2l2.67 1.2c2.4 1.07 2.93 1.2 3.73-.67z" fill="#5a357b"/><path d="m1647.87 164.87c2.53 0 3.47-4.67 3.87-10 .4-5.47-.27-10.27-2.8-10.4-2.67 0-3.47 4.67-3.87 10-.4 5.47.27 10.27 2.8 10.4z" fill="#5a357b"/><path d="m166.93 279.4c5.07.67 6.93-1.2 7.2-2.67.27-1.33-1.07-2-5.07-2.13-1.73-.13-3.73-.27-5.6-.53-.4.27-1.07.8-1.33 1.73-.4 1.6 1.07 3.07 4.8 3.6z" fill="#5a357b"/><path d="m1816.93 246.6c2.4.93 4.93-3.2 7.33-8 2.4-4.93 3.6-9.6 1.2-10.67-2.53-.93-5.07 3.2-7.33 8-2.4 4.93-3.6 9.6-1.2 10.67z" fill="#5a357b"/><path d="m125.07 264.6c2.53-.13 3.07-4.93 3.2-10.27 0-5.47-.93-10.27-3.47-10.27-2.53.13-3.2 4.8-3.2 10.27s.93 10.27 3.47 10.27z" fill="#5a357b"/><path d="m196.4 276.6c2.53-.27 2.8-5.07 2.53-10.4-.27-5.47-1.47-10.13-4.13-10-2.53.27-2.8 5.07-2.53 10.4.27 5.47 1.47 10.13 4.13 10z" fill="#5a357b"/><path d="m1441.6 124.33c0-2.13-.93-5.07-2.8-4.93-2 0-3.2 3.33-3.2 7.2l2.93-.13c2.53 0 3.07-.13 3.07-2.13z" fill="#5a357b"/><path d="m508.8 285.4c2.4-.8 1.73-5.6.27-10.8-1.47-5.2-3.6-9.6-6.13-8.93-2.53.8-1.73 5.6-.27 10.8 1.47 5.2 3.6 9.6 6.13 8.93z" fill="#5a357b"/><path d="m742.4 247.8c1.33-.67 1.6-3.6-.13-7.87-1.87-4.27-4-6-5.6-5.2-1.87.8-1.87 3.2 0 7.47s4 6.27 5.73 5.6z" fill="#5a357b"/><path d="m1594.13 159.8c5.07.8 6.93-1.07 7.2-2.53.27-1.33-.93-2-5.07-2.27-1.73-.13-3.6-.27-5.47-.67-.4.27-1.07.8-1.33 1.73-.4 1.6 1.07 3.07 4.67 3.73z" fill="#5a357b"/><path d="m1598.53 132.6c-2.13 0-2.93 2.27-2.67 6.93.13 4.67 1.47 7.2 3.33 7.2 1.47.27 2.8-2.53 2.67-7.2s-1.6-7.07-3.33-6.93z" fill="#5a357b"/><path d="m1337.6 145.53c2.4-.93 1.47-5.6 0-10.8-1.6-5.2-4-9.47-6.4-8.67-2.53.93-1.6 5.6 0 10.8s4 9.47 6.4 8.67z" fill="#5a357b"/><path d="m1623.6 138.2c-2.53 0-3.33 4.8-3.47 10.13-.13 5.47.67 10.27 3.2 10.27 2.53-.13 3.2-4.8 3.47-10.13.13-5.47-.67-10.27-3.2-10.27z" fill="#5a357b"/><path d="m483.47 287c2.4-.8 1.73-5.6.4-10.8-1.33-5.33-3.47-9.6-6-8.93-2.4.8-1.73 5.6-.4 10.8 1.33 5.33 3.47 9.6 6 8.93z" fill="#5a357b"/><path d="m21.6 223.53c.53-2 .53-5.07-1.2-5.6-1.87-.53-4.13 2.27-5.07 6l2.67.8c2.4.67 2.93.8 3.6-1.2z" fill="#5a357b"/><path d="m1309.87 155.93c5.07-.67 6.4-3.07 6.13-4.53-.13-1.33-1.47-1.6-5.47-.67-1.73.27-3.6.8-5.47.93-.4.4-.8 1.07-.8 2.13 0 1.73 1.87 2.67 5.6 2.13z" fill="#5a357b"/><path d="m1908.27 321.13c-4 3.33-5.07 6.53-3.6 8.13 1.6 1.73 4.8.8 9.87-3.73 3.87-3.33 4.67-6.27 3.07-7.87-1.6-1.73-5.33.13-9.33 3.47z" fill="#5a357b"/><path d="m457.07 282.07c1.6-.4 2.27-3.47 1.07-7.87-1.2-4.53-3.2-6.4-4.93-5.87-2 .53-2.27 2.93-1.07 7.47 1.2 4.53 3.07 6.67 4.93 6.27z" fill="#5a357b"/><path d="m742.4 261.53c4.93-1.07 6.13-3.47 5.87-4.93-.27-1.33-1.6-1.47-5.6-.27-1.73.4-3.6 1.07-5.33 1.33-.27.4-.8 1.07-.67 2.13.13 1.73 2 2.53 5.73 1.73z" fill="#5a357b"/><path d="m221.47 279.93c2.53-.4 2.8-5.2 2.4-10.53-.4-5.47-1.73-10.13-4.27-9.87-2.67.4-2.8 5.2-2.4 10.53.4 5.47 1.73 10.13 4.27 9.87z" fill="#5a357b"/><path d="m1552.4 145.93c2.53-.4 2.67-5.2 2.4-10.53-.4-5.47-1.73-10.13-4.27-9.87-2.67.4-2.8 5.2-2.4 10.53.4 5.47 1.73 10.13 4.27 9.87z" fill="#5a357b"/><path d="m1362.8 143.27c2.4-.8 1.6-5.6.13-10.8s-3.73-9.6-6.27-8.8c-2.4.8-1.6 5.6-.13 10.8s3.73 9.6 6.27 8.8z" fill="#5a357b"/><path d="m532.53 281.67c2.4-.4 3.33-3.6 2.4-10.27-.67-5.07-2.67-7.33-4.93-6.93-2.27.4-2.8 4.53-2.27 9.73s2.67 7.87 4.8 7.47z" fill="#5a357b"/><path d="m817.6 238.2c2.27-.67 2.8-3.87 1.2-10.4-1.2-4.93-3.47-6.93-5.6-6.4-2.27.67-2.4 4.8-1.2 9.87s3.47 7.6 5.6 6.93z" fill="#5a357b"/><path d="m1882 276.6c-2.13-1.33-5.33 2.4-8.4 6.8-3.07 4.53-4.93 8.93-2.8 10.4 2.27 1.33 5.33-2.4 8.4-6.8 3.07-4.53 4.93-8.93 2.8-10.4z" fill="#5a357b"/><path d="m866.4 216.6c2.53-.53 3.07-.67 2.67-2.67-.4-2.13-2-4.8-3.73-4.4-1.87.4-2.53 4-1.73 7.6l2.8-.53z" fill="#5a357b"/><path d="m1386.67 139.8c2.27-.27 3.33-3.33 2.67-10.13-.53-5.07-2.53-7.33-4.8-7.07-2.27.27-2.93 4.4-2.53 9.6s2.4 8 4.67 7.6z" fill="#5a357b"/><path d="m1077.6 187c2.27-1.07.93-5.73-1.07-10.67-2.13-5.07-4.8-9.07-7.2-8.13-2.27 1.07-1.07 5.73 1.07 10.67 2.13 5.07 4.8 9.07 7.2 8.13z" fill="#5a357b"/><path d="m981.33 206.47c2.27-1.2.93-5.73-1.2-10.67-2.13-5.07-4.93-9.07-7.2-8s-.93 5.73 1.2 10.67c2.13 5.07 4.93 9.07 7.2 8z" fill="#5a357b"/><path d="m1052.67 191.93c2.27-1.2.93-5.73-1.07-10.67-2.13-5.07-4.8-9.07-7.2-8s-1.07 5.6 1.07 10.67c2.13 5.07 4.8 9.07 7.2 8z" fill="#5a357b"/><path d="m1026 204.6c4.93-1.07 6-3.6 5.73-5.07-.27-1.33-1.6-1.47-5.6-.13-1.73.53-3.6 1.07-5.33 1.47-.27.4-.67 1.07-.53 2.13.13 1.73 2.13 2.4 5.73 1.6z" fill="#5a357b"/><path d="m583.07 264.87c2.53-.27 3.07-.4 2.8-2.4-.27-2.13-1.47-4.93-3.33-4.67-2 .27-2.93 3.73-2.4 7.47z" fill="#5a357b"/><path d="m1025.6 190.87c1.47-.53 1.6-3.6-.27-7.87-2-4.27-4.13-5.87-5.73-5.07-1.87.8-1.73 3.2.13 7.47 1.87 4.27 4.13 6.13 5.87 5.47z" fill="#5a357b"/><path d="m1843.33 273.93c-1.2 1.2-.8 3.07 2 5.6 3.87 3.33 6.53 2.8 7.6 1.6.93-1.07.27-2.13-3.2-4.53-1.33-1.07-2.93-2.27-4.27-3.47-.53 0-1.33 0-2.13.8z" fill="#5a357b"/><path d="m455.07 295.67c5.07-.4 6.53-2.53 6.53-4.13 0-1.47-1.47-1.73-5.47-1.07-1.6.27-3.6.53-5.47.67-.4.27-.93.93-.93 2-.13 1.73 1.73 2.8 5.33 2.53z" fill="#5a357b"/><path d="m301.2 271.8c.13-2.13-.67-5.07-2.4-5.2-2-.13-3.47 3.2-3.6 6.93l2.8.13c2.53.13 3.07.13 3.2-1.87z" fill="#5a357b"/><path d="m411.2 289.67c2.4-.67 2-5.47.93-10.67-1.07-5.33-3.07-9.73-5.6-9.2-2.53.67-2.13 5.47-.93 10.67 1.07 5.33 3.07 9.73 5.6 9.2z" fill="#5a357b"/><path d="m1856.53 271.13c1.33.8 3.87-.8 6.13-4.8 2.27-4.13 2.4-6.8.8-7.6-1.73-1.07-3.73.53-6 4.53s-2.53 6.93-.93 7.87z" fill="#5a357b"/><path d="m171.6 266.47c1.6-.13 2.8-2.93 2.53-7.47-.27-4.67-1.73-6.93-3.6-6.8-2.13.13-2.8 2.4-2.53 7.07s1.73 7.2 3.6 7.2z" fill="#5a357b"/><path d="m697.73 262.07c2.27-1.07 1.2-5.73-.8-10.8-1.87-5.07-4.53-9.2-6.93-8.27-2.4 1.07-1.2 5.73.8 10.8 1.87 5.07 4.53 9.2 6.93 8.27z" fill="#5a357b"/><path d="m794.27 244.47c2.27-1.07.93-5.73-1.07-10.67-2-5.07-4.8-9.07-7.2-8.13-2.27 1.07-.93 5.73 1.07 10.67 2 5.07 4.8 9.07 7.2 8.13z" fill="#5a357b"/><path d="m1100.93 180.73c2.27-.67 2.93-3.87 1.33-10.4-1.2-5.07-3.47-7.07-5.6-6.4-2.27.67-2.4 4.8-1.33 9.87s3.47 7.6 5.6 6.93z" fill="#5a357b"/><path d="m1671.2 170.2c2.27.53 4.4-2 6.27-8.53 1.33-4.93.4-7.73-1.87-8.27-2.27-.53-4.4 3.07-5.87 8s-.67 8.27 1.47 8.8z" fill="#5a357b"/><path d="m1150.27 159.8c2.53-.4 3.07-.67 2.67-2.67-.4-2.13-1.87-4.8-3.6-4.4-1.87.4-2.67 3.87-1.87 7.6z" fill="#5a357b"/><path d="m1900.13 295.53c-2.27-1.33-5.6 2.13-8.8 6.4-3.33 4.4-5.47 8.67-3.33 10.27 2.13 1.33 5.47-2.13 8.8-6.4 3.33-4.4 5.47-8.67 3.33-10.27z" fill="#5a357b"/><path d="m3.2 234.87c.13-.4-.13-.67-.67-1.2-.8-.4-.67-1.2-.27-2.67l2.93-9.33c1.87-5.73.53-9.47-4.8-11.07-.14-.04-.26-.06-.4-.09v23.85c1.05.35 1.78.61 2.27.77.4.27.8.13.93-.27z" fill="#fdeacf"/><path d="m14.8 239.4c4.93 1.33 8.27-.67 9.47-1.6.4-.4.53-.67.4-.93-.13-.27-.53-.4-.93-.4-6-.13-9.2-3.6-8.93-9.2 0-.53.13-.93.13-1.47l11.6 3.33c.4.13.67 0 .93-.4 1.33-2.67 1.33-9.73-6.67-12-6.67-1.73-12.8 2.4-14.13 8.93-1.33 6.27 2 11.87 8.13 13.73zm5.6-21.47c1.73.53 1.73 3.6 1.2 5.6-.67 2-1.2 1.87-3.6 1.2l-2.67-.8c.93-3.73 3.2-6.53 5.07-6z" fill="#fdeacf"/><path d="m34.67 243.53c-4.27-1.07 0-7.07-4.8-8.13-4.27-1.07-5.87 6.53 4.53 9.33 7.87 2.13 11.07-1.07 12.13-4 2.27-6.53-5.73-8.67-9.07-13.33-1.2-1.73.27-4.93 3.47-3.73 3.6 1.33-.4 5.73 4.53 7.07 3.73 1.07 6.13-5.47-4.27-8.27-5.6-1.47-10.27.27-11.33 4.27-2 6.93 6.93 9.2 8.4 13.07.8 1.87-.8 4.53-3.6 3.73z" fill="#fdeacf"/><path d="m54.93 249c-4.27-1.07-.13-7.07-4.93-8.13-4.27-.93-5.73 6.67 4.67 9.33 7.87 2 11.07-1.33 12-4.27 2.27-6.53-5.87-8.67-9.2-13.2-1.2-1.6.13-4.8 3.33-3.73 3.6 1.2-.27 5.6 4.67 6.93 3.73.93 6-5.6-4.4-8-5.6-1.47-10.13.27-11.2 4.4-1.87 6.93 7.2 9.07 8.67 12.93.8 1.87-.8 4.4-3.6 3.73z" fill="#fdeacf"/><path d="m122.67 265.67c7.07 1.47 12.4-2.8 13.73-9.07 1.2-6.27-2.13-12.27-9.07-13.73-7.07-1.47-12.4 2.8-13.73 9.07-1.33 6.4 2 12.27 9.07 13.73zm2.13-21.6c2.53 0 3.47 4.8 3.47 10.27-.13 5.33-.67 10.13-3.2 10.27-2.53 0-3.47-4.8-3.47-10.27s.67-10.13 3.2-10.27z" fill="#fdeacf"/><path d="m135.87 267.27c-.13.4.13.67.67.67.8.13 2.4.27 4.93.8 2.53.4 4.13.8 4.93 1.07.53.13.8 0 .93-.4 0-.4-.27-.53-.67-.8-.8-.4-.8-1.2-.53-2.67l3.07-16.27 1.6.27c.53.13.8-.13.93-.8s0-.93-.53-1.07l-1.87-.4c-2-1.33-2.53-3.33-2.27-4.8.27-1.6 1.33-2.8 2.53-2.53 2.4.53-1.47 5.07 3.2 6 3.87.67 5.33-6-2.8-7.07-6.13-.93-7.73 2.8-8.4 6.93l-1.07-.13c-.67-.13-.8.13-.93.8-.13.8-.13 1.07.53 1.2l1.07.13-3.07 16.27c-.27 1.47-.53 2.13-1.47 2.27-.4 0-.67.13-.8.53z" fill="#fdeacf"/><path d="m157.47 275.67c-.13 2.13 3.73 4.13 9.2 5.07 6.93 1.2 14.27 0 14.93-5.2.53-4-3.47-5.47-11.6-5.6-4.13-.13-7.47-.67-8-1.73-.4-.67 0-1.6 1.33-2.4 1.47.8 3.2 1.33 5.07 1.6 6.53 1.07 12.93-.67 14.13-6.13.8-3.47-.4-6.13-3.07-7.87 1.33-1.73 3.73.8 5.33.27 2.13-.67 2-3.6-.4-4.13-2.67-.8-5.2 1.07-6 3.47-1.47-.8-3.2-1.2-5.2-1.6-6.27-1.07-12.53.67-13.73 6.13-.67 3.33.27 5.87 2.67 7.6-1.07.27-4.4 1.47-4.53 4.67 0 1.73 1.07 2.8 2.67 3.47-1.33.27-2.67 1.07-2.8 2.4zm4.67.13c.27-.93.93-1.47 1.33-1.73 1.87.27 3.87.4 5.6.53 4 .13 5.33.8 5.07 2.13-.27 1.47-2.13 3.33-7.2 2.67-3.73-.53-5.2-2-4.8-3.6zm8.4-23.6c1.87-.13 3.33 2.13 3.6 6.8.27 4.53-.93 7.33-2.53 7.47-1.87 0-3.33-2.53-3.6-7.2s.4-6.93 2.53-7.07z" fill="#fdeacf"/><path d="m194 277.93c7.07.93 12.27-3.47 13.2-9.87.93-6.27-2.8-12.13-9.87-13.2-7.2-.93-12.27 3.6-13.2 9.87-.93 6.4 2.67 12.13 9.87 13.2zm.8-21.73c2.67-.13 3.87 4.53 4.13 10 .27 5.33 0 10.13-2.53 10.4-2.67.13-3.87-4.53-4.13-10-.27-5.33 0-10.13 2.53-10.4z" fill="#fdeacf"/><path d="m219.07 281.27c7.2.8 12.27-3.73 13.07-10.13.8-6.27-3.07-12-10.13-12.93-7.2-.8-12.27 3.73-13.07 10.13s2.93 12 10.13 12.93zm.53-21.73c2.53-.27 3.87 4.4 4.27 9.87.4 5.33.13 10.13-2.4 10.53-2.53.27-3.87-4.4-4.27-9.87-.4-5.33-.27-10.13 2.4-10.53z" fill="#fdeacf"/><path d="m242.13 283.8c3.07.4 5.07-.67 6.53-2.4l-.27 2c0 .53.27.8.8.8 1.87 0 6.53.27 8.4.4.67.13.93 0 .93-.4s-.27-.67-.8-.93c-.93-.4-.93-1.2-.8-2.67l2.53-23.87c0-.67-.4-.93-.93-.67-3.33 1.33-7.07 1.6-8.53 1.73-.53.13-.8.27-.8.67s.27.67.67.8c.93.4.93 1.2.8 2.67l-.13 1.87c-.67-1.2-1.87-2.13-3.6-2.67-6.27-1.73-11.87 1.33-12.93 8.8-1.07 7.47 1.73 13.2 8.13 13.87zm.13-11.2c.4-5.2 1.87-9.07 4.13-9.07s3.73 2.53 3.47 7.73c-.53 6.8-2 9.73-4.27 9.6-2.27 0-3.73-3.07-3.33-8.27z" fill="#fdeacf"/><path d="m260.13 285.53c.93 0 2.53 0 5.07.27 2.67.13 4.27.4 5.07.53.4 0 .8-.13.8-.53s-.27-.53-.67-.67c-.93-.4-.93-1.2-.8-2.67l.8-9.87c.27-2.53 1.33-4.93 3.73-4.8s2.8 2.8 2.53 5.47l-.8 9.73c-.13 1.47-.27 2.27-1.2 2.4-.53 0-.8.13-.8.53s.27.67.8.67c.93 0 2.53 0 5.07.27 2.67.13 4.27.4 5.07.53.4 0 .8-.13.8-.53s-.13-.67-.8-.4c-.93-.4-.93-1.2-.8-2.67l.8-9.73c.53-6-1.47-9.47-7.07-9.87-3.6-.27-5.87 1.47-7.07 3.33l-.13-2.8c-.13-.67-.4-.93-.93-.67-3.33 1.33-6.53 1.73-8 1.87-.53.13-.8.27-.8.67s.27.67.67.8c.93.4.93 1.2.8 2.67l-.93 11.87c-.13 1.47-.27 2.27-1.2 2.4-.53 0-.8.13-.8.53s.27.67.8.67z" fill="#fdeacf"/><path d="m298 288.6c4.93.4 7.87-2.27 8.8-3.47.27-.4.27-.67.13-.93-.13-.27-.53-.27-.93-.13-5.73 1.2-9.6-1.47-10.67-7.07 0-.53-.13-.93-.13-1.47l12.13.8c.4 0 .67-.27.8-.67.53-2.8-.8-9.73-9.2-10.27-6.93-.27-12 5.07-11.87 11.73 0 6.27 4.53 11.07 10.93 11.47zm.8-22c1.73.13 2.53 3.07 2.4 5.2-.13 2-.67 2-3.2 1.87l-2.8-.13c.13-3.73 1.6-7.07 3.6-6.93z" fill="#fdeacf"/><path d="m318.27 289.8c8.13.4 10.53-3.47 10.93-6.53.8-6.8-7.47-7.33-11.73-11.07-1.47-1.33-.8-4.67 2.53-4.27 3.73.4.93 5.6 6 5.87 3.87.13 4.93-6.67-5.73-7.2-5.73-.27-9.87 2.4-10.13 6.67-.4 7.2 8.8 7.47 11.07 10.93 1.07 1.6.13 4.53-2.8 4.4-4.53-.13-1.73-6.93-6.53-6.93-4.4-.13-4.4 7.6 6.4 8.13z" fill="#fdeacf"/><path d="m339.2 290.6c8.13.27 10.53-3.6 10.8-6.67.67-6.8-7.6-7.2-11.87-10.93-1.6-1.33-.93-4.8 2.4-4.4 3.73.53.93 5.73 6 5.87 4 .13 4.8-6.67-5.73-7.2-5.73-.13-9.87 2.53-10 6.8-.27 7.2 8.93 7.33 11.2 10.8 1.2 1.73.27 4.67-2.67 4.53-4.53-.13-1.87-6.8-6.67-6.8-4.4 0-4.27 7.6 6.53 8z" fill="#fdeacf"/><path d="m409.07 291.27c7.2 0 11.6-5.33 11.47-11.73s-4.67-11.47-11.87-11.47-11.47 5.33-11.47 11.73c.13 6.4 4.67 11.6 11.87 11.47zm-2.53-21.47c2.53-.53 4.53 3.87 5.6 9.2 1.07 5.2 1.47 10-.93 10.67-2.53.53-4.53-3.87-5.6-9.2-1.2-5.2-1.6-10 .93-10.67z" fill="#fdeacf"/><path d="m422.13 270.33h1.07l.4 16.53c0 1.47 0 2.27-.93 2.53-.4.13-.67.27-.67.67s.27.53.8.53c.93-.13 2.53-.27 5.07-.27 2.53-.13 4.27 0 5.07 0 .53 0 .8-.13.8-.53s-.27-.53-.8-.67c-.93-.27-1.07-1.07-1.07-2.53l-.4-16.53h1.73c.67 0 .8-.27.8-1.07 0-.67-.27-.93-.8-.93h-1.87c-2.27-.93-3.2-2.8-3.2-4.27-.13-1.6.67-2.93 1.87-2.93 2.4 0-.4 5.33 4.4 5.2 4 0 4-6.93-4.4-6.13-6.27.4-6.93 4.4-6.8 8.53h-1.07c-.67 0-.8.27-.8.93s.13.93.8.93z" fill="#fdeacf"/><path d="m447.73 282.6c-.93.53-4 2.27-3.47 5.47.27 1.73 1.6 2.53 3.33 2.93-1.33.53-2.4 1.6-2.27 2.93.27 2.13 4.4 3.33 10 3.07 7.07-.27 14-2.93 13.6-8.13-.4-4-4.53-4.53-12.53-3.07-4 .8-7.33.93-8.13 0-.53-.67-.27-1.6.8-2.67 1.47.4 3.2.67 5.2.53 6.53-.27 12.4-3.33 12.53-8.93.13-3.6-1.6-5.87-4.67-7.07.93-2.13 3.87 0 5.73-1.07 1.87-1.2 1.07-3.87-1.33-4-2.8-.13-4.93 2.13-5.2 4.67-1.6-.4-3.33-.67-5.47-.53-6.53.4-12.13 3.33-12.27 8.93 0 3.47 1.47 5.73 4.13 6.93zm2.93 8.53c1.87-.13 3.87-.4 5.47-.67 4-.67 5.47-.4 5.47 1.07 0 1.6-1.47 3.73-6.53 4.13-3.6.27-5.47-.8-5.33-2.53 0-1.07.53-1.73.93-2zm2.53-22.8c1.73-.53 3.73 1.33 4.93 5.87 1.2 4.4.53 7.47-1.07 7.87-1.87.4-3.73-1.73-4.93-6.27-1.2-4.53-.93-6.93 1.07-7.47z" fill="#fdeacf"/><path d="m481.33 288.73c7.2-.4 11.33-5.87 10.93-12.27-.27-6.4-5.07-11.33-12.27-10.93s-11.2 5.87-10.93 12.27 5.07 11.33 12.27 10.93zm-3.47-21.47c2.53-.67 4.67 3.6 6 8.93 1.33 5.2 2 10-.4 10.8-2.53.67-4.67-3.6-6-8.93-1.33-5.2-2-10 .4-10.8z" fill="#fdeacf"/><path d="m506.67 287c7.2-.53 11.33-6 10.8-12.4-.4-6.4-5.33-11.2-12.53-10.8-7.2.53-11.2 6-10.8 12.4.53 6.53 5.33 11.33 12.53 10.8zm-3.73-21.33c2.53-.67 4.67 3.73 6.13 8.93 1.47 5.2 2.13 10-.27 10.8-2.53.67-4.67-3.73-6.13-8.93-1.47-5.2-2.27-10 .27-10.8z" fill="#fdeacf"/><path d="m530 285.13c2.93-.27 4.8-1.6 5.87-3.6l.13 2c.13.53.4.8.93.67 1.73-.4 6.4-1.07 8.27-1.2.53-.13.8-.27.8-.67-.13-.4-.4-.53-.67-.93-1.07-.13-1.2-.93-1.33-2.4l-2.13-23.87c0-.53-.4-.67-.93-.4-3.2 1.87-6.67 2.93-8.13 3.33-.53.13-.67.4-.67.8s.27.53.8.67c.93.13 1.07.93 1.2 2.4l.13 1.87c-.93-1.07-2.27-1.73-4-1.87-6.4-.53-11.33 3.6-10.93 11.07.4 7.6 4.27 12.67 10.67 12.13zm0-20.67c2.27-.4 4.27 1.87 4.93 6.93.93 6.67 0 9.87-2.4 10.27-2.13.4-4.27-2.27-4.8-7.47s0-9.33 2.27-9.73z" fill="#fdeacf"/><path d="m545.73 265.13c.93.13 1.2.93 1.33 2.4l1.2 11.87c.13 1.47.13 2.4-.8 2.67-.4.13-.67.27-.67.67.13.27.4.53.93.4.93-.13 2.53-.4 5.07-.67 2.53-.27 4.27-.4 5.07-.4.53 0 .8-.27.8-.67s-.27-.4-.8-.53c-.93-.13-1.2-.93-1.33-2.4l-1.07-9.87c-.27-2.67.4-5.2 2.8-5.47s3.2 2.27 3.47 4.93l1.07 9.73c.13 1.47.13 2.4-.8 2.67-.4.27-.67.4-.67.8.13.27.4.53.93.4.93-.13 2.53-.4 5.07-.67 2.53-.27 4.27-.4 5.07-.4.53 0 .8-.27.8-.67-.13-.27-.4-.4-.93-.4-.93-.13-1.2-.93-1.33-2.4l-1.07-9.73c-.67-6-3.33-8.93-8.8-8.4-3.6.4-5.33 2.4-6.27 4.53l-.67-2.8c-.13-.53-.4-.8-.93-.4-3.2 1.87-6.13 2.93-7.6 3.33-.53.13-.67.4-.67.8s.27.53.8.67z" fill="#fdeacf"/><path d="m585.47 279.67c5.07-.53 7.33-3.73 8.13-5.07.27-.4.27-.67 0-.93-.27-.13-.53-.13-.93 0-5.47 2.27-9.73.27-11.73-5.07-.13-.53-.27-1.07-.4-1.47l12-1.33c.53 0 .8-.27.8-.8.13-2.93-2.53-9.47-11.07-8.27-6.93.8-10.93 6.93-9.6 13.6 1.2 6.13 6.4 10 12.8 9.33zm-2.93-21.87c1.87-.27 3.07 2.53 3.33 4.67.27 2-.27 2.13-2.8 2.4l-2.93.4c-.53-3.73.4-7.2 2.4-7.47z" fill="#fdeacf"/><path d="m607.73 271.13c1.33 1.47.93 4.4-2 4.8-4.4.53-2.8-6.53-7.6-5.73-4.4.67-2.93 8.27 7.73 6.93 8-.93 9.73-5.2 9.6-8.27-.4-6.93-8.67-5.87-13.47-8.93-1.73-1.07-1.6-4.53 1.73-4.67 3.87-.13 1.87 5.47 6.93 4.8 3.87-.53 3.73-7.33-6.93-6-5.73.8-9.33 4.13-8.8 8.27.93 7.07 10 5.73 12.8 8.8z" fill="#fdeacf"/><path d="m628.13 268.47c1.47 1.47 1.07 4.4-1.87 4.8-4.53.67-2.93-6.4-7.73-5.6-4.27.67-2.8 8.27 7.87 6.8 8.13-1.07 9.87-5.33 9.6-8.4-.4-6.93-8.67-5.87-13.47-8.8-1.73-1.07-1.6-4.53 1.73-4.67 3.73-.27 1.87 5.33 6.93 4.67 4-.53 3.6-7.33-7.33-5.87-5.73.8-9.2 4.27-8.67 8.4.93 7.07 10.13 5.6 12.93 8.67z" fill="#fdeacf"/><path d="m695.73 263.93c7.2-1.2 10.67-6.93 9.6-13.33-1.07-6.27-6.27-10.67-13.47-9.47s-10.67 7.07-9.6 13.33 6.27 10.67 13.47 9.47zm-5.73-20.93c2.4-.93 5.07 3.2 6.93 8.27 2 5.07 3.07 9.73.8 10.8-2.4.93-5.07-3.2-6.93-8.27-2-5.07-3.2-9.73-.8-10.8z" fill="#fdeacf"/><path d="m706 241.27 1.07-.13 2.8 16.27c.27 1.47.27 2.27-.53 2.67-.53.27-.67.4-.67.8.13.4.4.53.93.4.8-.27 2.4-.67 4.93-1.07 2.67-.4 4.27-.53 5.07-.67.4 0 .67-.27.67-.67s-.27-.53-.8-.53c-.93 0-1.2-.8-1.47-2.27l-2.8-16.27 1.6-.27c.53-.13.67-.53.53-1.2-.13-.67-.4-.93-.93-.8l-1.87.27c-2.27-.53-3.47-2.27-3.73-3.73-.27-1.6.27-2.93 1.47-3.2 2.4-.53.4 5.2 5.07 4.4 3.87-.67 2.93-7.47-5.07-5.47-6.13 1.33-6.27 5.47-5.47 9.47l-1.07.13c-.67.13-.8.4-.67 1.07s.27.93.93.8z" fill="#fdeacf"/><path d="m733.2 249.53c-.8.53-3.73 2.8-2.67 5.87.53 1.6 2 2.27 3.73 2.4-1.2.8-2.27 1.87-1.87 3.2.67 2.13 4.93 2.67 10.4 1.73 6.93-1.33 13.33-4.93 12.27-10-.8-3.87-5.07-3.87-12.8-1.33-4 1.33-7.33 1.87-8.13 1.07-.67-.4-.53-1.47.4-2.67 1.47.27 3.33.27 5.2-.13 6.4-1.2 11.87-5.07 11.2-10.53-.4-3.47-2.4-5.47-5.6-6.27.67-2.13 3.73-.53 5.6-1.87 1.73-1.33.53-4-1.87-3.73-2.93.27-4.53 2.8-4.53 5.33-1.6-.13-3.47-.13-5.47.27-6.4 1.07-11.6 4.93-10.93 10.4.4 3.33 2.27 5.47 5.07 6.27zm4.13 8.13c1.73-.27 3.6-.93 5.33-1.33 4-1.2 5.33-1.07 5.6.27.27 1.47-.93 3.87-5.87 4.93-3.73.8-5.6 0-5.73-1.73-.13-1.07.4-1.73.67-2.13zm-.67-22.93c1.6-.8 3.73.93 5.6 5.2 1.73 4.27 1.47 7.2.13 7.87-1.73.67-3.87-1.33-5.73-5.6-1.87-4.27-1.87-6.67 0-7.47z" fill="#fdeacf"/><path d="m767.33 251.27c7.07-1.33 10.53-7.33 9.33-13.6s-6.53-10.53-13.6-9.2c-7.2 1.33-10.53 7.33-9.33 13.6s6.53 10.53 13.6 9.2zm-6.13-20.8c2.4-.93 5.07 3.07 7.07 8.13 2 4.93 3.2 9.6.93 10.67-2.4.93-5.07-3.07-7.07-8.13-2-4.93-3.33-9.6-.93-10.67z" fill="#fdeacf"/><path d="m792.4 246.47c7.07-1.33 10.4-7.33 9.2-13.6s-6.67-10.53-13.73-9.2c-7.07 1.33-10.4 7.33-9.2 13.6 1.33 6.27 6.67 10.53 13.73 9.2zm-6.4-20.8c2.4-.93 5.2 3.07 7.2 8.13 2 4.93 3.33 9.6 1.07 10.67-2.4.93-5.2-3.07-7.2-8.13-2-4.93-3.33-9.6-1.07-10.67z" fill="#fdeacf"/><path d="m815.33 242.07c2.93-.53 4.67-2.13 5.47-4.27l.4 2c.13.53.4.67.93.53 1.73-.67 6.27-1.73 8.13-2.13.53-.13.8-.27.67-.67s-.4-.53-.67-.4c-.93 0-1.2-.8-1.47-2.27l-4.67-23.47c-.13-.67-.53-.8-1.07-.4-2.93 2.13-6.27 3.6-7.73 4.13-.4.13-.67.4-.53.8 0 .4.27.53.8.53.93 0 1.2.8 1.47 2.27l.4 1.73c-1.07-.93-2.53-1.47-4.27-1.47-6.4.13-10.93 4.67-9.73 12.13 1.07 7.47 5.47 12.13 11.87 10.93zm-2.13-20.67c2.13-.53 4.4 1.47 5.6 6.4 1.6 6.53 1.07 9.73-1.2 10.4-2.13.67-4.4-1.87-5.6-6.93-1.2-5.07-1.07-9.2 1.2-9.87z" fill="#fdeacf"/><path d="m829.33 220.07c1.07 0 1.33.8 1.6 2.27l2.4 11.73c.27 1.47.27 2.27-.53 2.67-.53.27-.8.4-.67.8s.4.53.93.4c.8-.27 2.4-.67 4.93-1.2 2.53-.4 4.13-.67 4.93-.8.53 0 .8-.27.67-.67 0-.4-.27-.53-.8-.53-.93 0-1.2-.8-1.47-2.27l-2-9.73c-.4-2.67-.13-5.2 2.27-5.73 2.4-.4 3.47 2 4 4.67l2 9.6c.27 1.47.27 2.27-.53 2.67-.53.27-.8.4-.67.8s.4.53.93.4c.8-.27 2.4-.67 4.93-1.2 2.53-.4 4.13-.67 4.93-.8.53 0 .8-.27.67-.67s-.4-.53-.8-.53c-.93 0-1.2-.8-1.47-2.27l-2-9.6c-1.2-5.87-4.13-8.53-9.6-7.47-3.6.67-5.2 2.93-5.87 5.07l-.93-2.67c-.27-.67-.53-.8-1.07-.4-2.93 2.27-5.73 3.6-7.2 4.13-.4.13-.67.4-.53.8.13.4.4.53.93.53z" fill="#fdeacf"/><path d="m870.27 230.87c4.93-1.07 6.93-4.27 7.6-5.73.13-.4.13-.8-.13-.93-.27-.13-.53 0-.93.13-5.2 2.67-9.73 1.07-12.13-4-.13-.4-.4-.93-.53-1.33l11.87-2.4c.4 0 .67-.27.67-.8-.13-2.93-3.33-9.2-11.73-7.6-6.67 1.47-10.13 8-8.27 14.4 1.73 6.13 7.33 9.6 13.6 8.27zm-4.93-21.33c1.73-.4 3.33 2.27 3.73 4.4.4 2-.13 2.13-2.67 2.67l-2.8.53c-.8-3.6-.13-7.2 1.73-7.6z" fill="#fdeacf"/><path d="m891.87 220.73c1.47 1.33 1.2 4.4-1.6 4.93-4.27.93-3.33-6.27-8-5.07-4.27 1.07-2.27 8.4 8.27 6.27 8-1.6 9.33-6 8.93-9.07-.93-6.8-9.07-5.2-14.13-7.87-1.87-.93-2-4.4 1.33-4.8 3.73-.4 2.13 5.33 7.2 4.27 3.73-.67 3.07-7.6-7.33-5.47-5.6 1.2-8.93 4.8-8.13 8.93 1.47 7.07 10.4 5.07 13.47 7.87z" fill="#fdeacf"/><path d="m912.27 216.47c1.47 1.33 1.2 4.4-1.6 4.93-4.27.93-3.33-6.27-8-5.07-4.27 1.07-2.27 8.4 8.27 6.27 8-1.6 9.33-6 8.93-9.07-.93-6.67-9.07-5.07-14.13-7.73-1.87-.93-2-4.4 1.33-4.8 3.73-.4 2.13 5.33 7.2 4.27 3.87-.8 3.07-7.73-7.33-5.6-5.73 1.2-8.93 4.8-8.13 8.93 1.47 7.07 10.4 5.07 13.47 7.87z" fill="#fdeacf"/><path d="m979.6 208.47c7.07-1.47 10.4-7.47 9.07-13.73-1.33-6.27-6.8-10.53-13.73-9.07-7.07 1.47-10.27 7.47-9.07 13.73 1.2 6.4 6.67 10.53 13.73 9.07zm-6.67-20.67c2.27-1.07 5.07 2.93 7.2 8 2.13 4.93 3.47 9.47 1.2 10.67-2.27 1.07-5.07-2.93-7.2-8-2.13-4.93-3.47-9.6-1.2-10.67z" fill="#fdeacf"/><path d="m988.93 185.4.93-.27 3.33 16.13c.27 1.47.27 2.27-.53 2.67-.4.27-.67.4-.53.8.13.4.4.53.93.4.8-.27 2.4-.67 4.93-1.2 2.53-.4 4.13-.67 4.93-.8.53 0 .8-.27.67-.67 0-.4-.27-.53-.8-.53-.93 0-1.2-.8-1.47-2.27l-3.33-16.13 1.6-.4c.53-.13.67-.53.53-1.2-.13-.67-.4-.93-.93-.8l-1.73.4c-2.4-.53-3.6-2.13-3.87-3.6-.4-1.47.13-2.93 1.33-3.2 2.27-.53.53 5.2 5.2 4.27 3.87-.8 2.67-7.47-5.47-5.33-6.13 1.47-6.13 5.6-5.2 9.6l-.93.27c-.53.13-.67.4-.53 1.07.13.67.27.93.93.8z" fill="#fdeacf"/><path d="m1016.27 193c-.8.53-3.6 2.8-2.53 5.87.53 1.73 2 2.27 3.73 2.4-1.2.8-2.13 1.87-1.73 3.2.67 2 4.93 2.53 10.4 1.47 6.93-1.47 13.33-5.2 12.13-10.27-.93-3.87-5.2-3.73-12.8-1.07-4 1.33-7.2 2-8.13 1.2-.53-.4-.53-1.47.4-2.67 1.47.27 3.33.13 5.2-.27 6.53-1.33 11.87-5.33 11.07-10.8-.53-3.47-2.53-5.47-5.73-6.13.67-2.13 3.87-.53 5.2-1.87 1.73-1.47.53-4-1.87-3.73-2.8.4-4.53 2.93-4.4 5.47-1.6-.13-3.47 0-5.47.4-6.27 1.33-11.47 5.2-10.67 10.67.53 3.33 2.4 5.33 5.2 6.13zm4.53 7.87c1.73-.4 3.6-.93 5.33-1.47 4-1.33 5.33-1.2 5.6.13.27 1.47-.8 4-5.73 5.07-3.6.8-5.6.13-5.73-1.6-.13-1.07.27-1.73.53-2.13zm-1.2-22.93c1.6-.8 3.73.8 5.73 5.07 1.87 4.27 1.73 7.33.27 7.87-1.73.67-4-1.2-5.87-5.47s-2-6.67-.13-7.47z" fill="#fdeacf"/><path d="m1050.67 193.93c7.07-1.47 10.53-7.47 9.2-13.73-1.2-6.27-6.67-10.4-13.73-9.07-7.2 1.47-10.4 7.47-9.2 13.73 1.33 6.27 6.67 10.53 13.73 9.07zm-6.27-20.67c2.4-1.07 5.07 2.93 7.2 8 2 4.93 3.33 9.47 1.07 10.67-2.4 1.07-5.07-2.93-7.2-8s-3.47-9.6-1.07-10.67z" fill="#fdeacf"/><path d="m1075.73 189c7.07-1.33 10.4-7.33 9.2-13.6-1.33-6.27-6.67-10.53-13.73-9.2-7.07 1.33-10.4 7.33-9.2 13.6 1.33 6.4 6.67 10.53 13.73 9.2zm-6.4-20.8c2.4-.93 5.07 3.07 7.2 8.13 2 4.93 3.33 9.6 1.07 10.67-2.4.93-5.07-3.07-7.2-8.13-2.13-4.93-3.33-9.6-1.07-10.67z" fill="#fdeacf"/><path d="m1098.67 184.47c2.93-.67 4.53-2.13 5.47-4.27l.4 2c.13.53.4.67.93.53 1.73-.53 6.27-1.6 8.13-2 .53-.13.8-.27.67-.67 0-.4-.4-.53-.8-.53-.93 0-1.2-.8-1.47-2.27l-4.53-23.6c-.13-.67-.53-.8-1.07-.4-2.93 2.27-6.27 3.6-7.73 4.13-.4.13-.67.4-.53.8 0 .4.27.53.8.53.93 0 1.2.8 1.47 2.27l.4 1.87c-1.07-.93-2.53-1.47-4.27-1.47-6.4.13-10.8 4.67-9.73 12.13 1.2 7.47 5.47 12.13 11.87 10.93zm-2-20.53c2.13-.67 4.4 1.33 5.6 6.4 1.6 6.53.93 9.73-1.33 10.4-2.13.67-4.53-1.87-5.6-6.93s-.93-9.2 1.33-9.87z" fill="#fdeacf"/><path d="m1113.2 162.6c.93 0 1.2.8 1.47 2.27l2.27 11.73c.27 1.47.27 2.27-.53 2.67-.53.27-.8.4-.67.8s.4.53.93.4c.8-.27 2.4-.53 4.93-1.07s4.13-.67 4.93-.8c.53 0 .8-.27.67-.67 0-.4-.27-.53-.8-.53-.93 0-1.2-.8-1.47-2.27l-1.87-9.73c-.53-2.53-.13-5.2 2.27-5.6s3.33 2 3.87 4.67l1.87 9.6c.27 1.47.27 2.27-.53 2.67-.53.27-.8.4-.67.8s.4.53.93.4c.8-.27 2.4-.53 4.93-1.07 2.53-.53 4.13-.67 4.93-.8.53 0 .8-.27.67-.67-.13-.27-.4-.4-.67-.67-.93 0-1.2-.8-1.47-2.27l-1.87-9.6c-1.07-5.87-4-8.67-9.47-7.6-3.6.67-5.2 2.93-5.87 5.07l-.8-2.67c-.27-.53-.53-.8-1.07-.4-2.93 2.27-5.73 3.47-7.2 4-.4.13-.67.4-.53.8 0 .4.27.53.8.53z" fill="#fdeacf"/><path d="m1154 174.33c4.93-.93 7.07-4.27 7.73-5.6.13-.4.13-.8-.13-.93-.27-.27-.53-.13-.93 0-5.47 2.53-9.87.93-12.13-4.27-.27-.4-.4-.93-.53-1.33l11.87-2.13c.4 0 .67-.27.67-.8-.13-2.93-3.2-9.33-11.33-7.6-6.8 1.2-10.4 7.6-8.67 14.13 1.6 6.13 7.2 9.73 13.47 8.53zm-4.67-21.6c1.73-.4 3.2 2.27 3.6 4.4.4 2-.13 2.27-2.67 2.67l-2.8.53c-.8-3.73 0-7.2 1.87-7.6z" fill="#fdeacf"/><path d="m1175.47 164.73c1.47 1.47 1.07 4.4-1.73 4.93-4.4.8-3.07-6.4-7.87-5.33-4.27.93-2.53 8.4 8.13 6.53 8-1.47 9.6-5.73 9.2-8.8-.67-6.8-8.93-5.47-13.87-8.27-1.87-1.07-1.87-4.53 1.47-4.8 3.73-.4 2 5.33 7.07 4.4 3.87-.67 3.33-7.47-7.2-5.6-5.73.93-9.07 4.53-8.4 8.67 1.2 7.2 10.27 5.33 13.2 8.27z" fill="#fdeacf"/><path d="m1196 161c1.47 1.47 1.07 4.4-1.73 4.93-4.4.8-3.07-6.27-7.87-5.33-4.27.8-2.67 8.27 8 6.53 8.13-1.33 9.6-5.6 9.33-8.67-.53-6.8-8.8-5.47-13.73-8.27-1.73-1.07-1.73-4.53 1.6-4.8 3.73-.27 2 5.33 7.07 4.53 3.87-.67 3.33-7.47-7.47-5.87-5.6 1.07-9.07 4.53-8.4 8.67 1.2 7.07 10.27 5.33 13.2 8.27z" fill="#fdeacf"/><path d="m1263.6 156.47c7.07-1.07 10.8-6.8 9.87-13.2-.8-6.27-6-10.8-13.2-9.87-7.2 1.07-10.8 6.93-9.87 13.2.93 6.4 6 10.93 13.2 9.87zm-5.33-21.2c2.53-.93 4.93 3.2 6.8 8.4 1.87 5.07 2.93 9.73.53 10.8-2.53.93-4.93-3.2-6.8-8.4-1.73-5.07-2.8-9.73-.53-10.8z" fill="#fdeacf"/><path d="m1274.27 133.93 1.07-.13 2.27 16.4c.13 1.47.13 2.27-.67 2.67-.53.27-.67.4-.67.8.13.4.4.53.93.4.8-.13 2.4-.4 4.93-.8 2.67-.4 4.27-.53 5.07-.53.53 0 .8-.27.8-.67s-.27-.53-.8-.53c-.93-.13-1.2-.93-1.33-2.4l-2.27-16.4 1.73-.27c.67 0 .8-.4.67-1.07s-.4-.93-.93-.8l-1.87.27c-2.27-.67-3.33-2.4-3.6-3.87-.13-1.6.4-3.07 1.6-3.2 2.4-.27.27 5.33 4.93 4.67 3.87-.53 3.2-7.33-5.2-6-6.13 1.2-6.53 5.2-5.87 9.33l-1.07.13c-.67.13-.8.4-.67 1.07.13.8.27 1.07.93.93z" fill="#fdeacf"/><path d="m1301.33 143.13c-.93.53-3.87 2.53-3.07 5.73.53 1.73 1.87 2.4 3.6 2.67-1.2.67-2.27 1.73-2 3.07.53 2.13 4.8 3.07 10.27 2.4 7.07-.8 13.73-4 12.93-9.07-.53-3.87-4.8-4.13-12.67-2.13-4 1.07-7.33 1.33-8.13.53-.53-.53-.4-1.47.67-2.67 1.47.27 3.2.4 5.2.13 6.53-.67 12.13-4.13 11.87-9.73-.27-3.47-2.13-5.73-5.2-6.67.67-2 3.73-.13 5.33-1.6 1.87-1.2.8-4-1.6-3.87-2.8.13-4.67 2.53-4.8 5.07-1.6-.4-3.47-.4-5.47-.13-6.4.8-11.87 4.13-11.6 9.73.27 3.33 1.87 5.47 4.67 6.53zm3.73 8.53c1.87-.13 3.73-.67 5.47-.93 4-.93 5.33-.67 5.47.67.27 1.47-1.07 3.87-6.13 4.53-3.73.53-5.6-.4-5.6-2.13 0-1.07.4-1.73.8-2.13zm.8-22.93c1.73-.67 3.73 1.2 5.33 5.6 1.47 4.27 1.07 7.33-.53 7.73-1.73.53-3.87-1.47-5.33-5.87-1.47-4.4-1.47-6.8.53-7.47z" fill="#fdeacf"/><path d="m1335.47 147.4c7.2-.8 11.07-6.4 10.4-12.8-.67-6.27-5.6-11.07-12.8-10.4-7.2.8-11.07 6.4-10.4 12.8s5.6 11.2 12.8 10.4zm-4.27-21.33c2.4-.8 4.8 3.47 6.4 8.67 1.47 5.2 2.4 9.87 0 10.8-2.4.8-4.8-3.47-6.4-8.67s-2.53-9.87 0-10.8z" fill="#fdeacf"/><path d="m1360.67 145c7.2-.53 11.2-6.13 10.67-12.53-.53-6.27-5.33-11.2-12.53-10.67s-11.2 6.13-10.67 12.53 5.33 11.2 12.53 10.67zm-4-21.33c2.53-.8 4.8 3.6 6.27 8.8s2.27 10-.13 10.8c-2.53.8-4.8-3.6-6.27-8.8s-2.27-10 .13-10.8z" fill="#fdeacf"/><path d="m1383.87 143.27c2.93-.13 4.8-1.47 6-3.47l.13 2c.13.53.4.8.93.67 1.73-.27 6.4-.8 8.27-.93.53 0 .8-.13.8-.53s-.27-.53-.8-.93c-.93-.13-1.07-.93-1.2-2.4l-1.47-23.87c0-.67-.4-.8-.93-.53-3.07 1.73-6.67 2.8-8.13 3.07-.4.13-.67.4-.67.8s.27.53.8.67c.93.27 1.07 1.07 1.2 2.53l.13 1.87c-.93-1.07-2.27-1.73-4-2-6.4-.8-11.47 3.2-11.33 10.67.13 7.47 3.87 12.8 10.27 12.4zm.67-20.67c2.27-.27 4.27 2 4.8 7.07.67 6.8-.4 9.87-2.67 10.13-2.27.4-4.27-2.4-4.67-7.6s.27-9.33 2.53-9.6z" fill="#fdeacf"/><path d="m1400.27 122.73c0 .4.27.53.8.67.93.27 1.07 1.07 1.07 2.53l.4 12c0 1.47 0 2.27-.93 2.53-.4.13-.67.27-.67.67s.27.53.8.53c.93 0 2.53-.13 5.07-.27 2.67-.13 4.13 0 5.07 0 .53 0 .8-.13.8-.53s-.4-.53-.8-.67c-.93-.27-1.07-1.07-1.07-2.53l-.27-9.87c-.13-2.53.67-5.07 3.07-5.2s3.07 2.53 3.2 5.2l.27 9.73c0 1.47 0 2.27-.93 2.53-.4.13-.67.27-.67.67s.27.53.8.53c.93 0 2.53-.13 5.07-.27 2.67-.13 4.13 0 5.07 0 .53 0 .8-.13.8-.53s-.27-.53-1.07-.8c-.93-.27-1.07-1.07-1.07-2.53l-.27-9.73c-.27-6-2.67-9.07-8.27-8.93-3.6.13-5.47 2.13-6.53 4.13l-.4-2.8c-.13-.53-.4-.8-.93-.53-3.2 1.73-6.27 2.53-7.73 2.8-.4 0-.67.27-.67.67z" fill="#fdeacf"/><path d="m1439.6 141.4c5.07 0 7.6-2.93 8.53-4.13.27-.4.27-.67.13-.93s-.53-.27-.93-.13c-5.73 1.6-9.73-.8-11.2-6.27-.13-.53-.13-.93-.27-1.47l12.13-.13c.4 0 .67-.13.8-.67.4-2.8-1.47-9.6-10-9.47-6.93.13-11.47 5.87-10.93 12.53.53 6.27 5.33 10.67 11.73 10.67zm-.8-22c1.87-.13 2.8 2.8 2.8 4.93 0 2-.53 2.13-3.07 2.13l-2.93.13c0-3.87 1.2-7.2 3.2-7.2z" fill="#fdeacf"/><path d="m1451.2 125.13c-.13 7.2 9.07 7.07 11.47 10.53 1.07 1.6.27 4.53-2.67 4.53-4.53 0-2-6.8-6.8-6.67-4.27 0-4 7.73 6.8 7.87 8.13.13 10.4-3.87 10.67-6.93.53-6.8-7.87-7.07-12.13-10.67-1.6-1.33-.93-4.67 2.4-4.4 3.73.4 1.07 5.6 6.13 5.73 4 .13 4.67-6.8-6-6.93-5.73-.13-9.87 2.67-9.87 6.93z" fill="#fdeacf"/><path d="m1483.47 136.33c1.2 1.6.27 4.53-2.67 4.4-4.4-.27-1.73-6.93-6.53-6.93-4.4 0-4.27 7.73 6.53 8.13 8.13.27 10.53-3.6 10.8-6.67.67-6.8-7.6-7.2-11.87-10.93-1.47-1.33-.8-4.8 2.53-4.4 3.73.53.93 5.73 6 5.87 3.87.13 4.8-6.67-6-7.07-5.73-.13-9.87 2.53-10 6.8-.27 7.2 8.93 7.33 11.2 10.8z" fill="#fdeacf"/><path d="m1539.87 134.47c-.8 6.4 2.93 12 10.13 12.93 7.2.8 12.27-3.73 13.07-10.13s-3.07-12.13-10.13-12.93c-7.2-.8-12.27 3.73-13.07 10.13zm10.67-8.93c2.53-.27 3.87 4.4 4.27 9.87.27 5.33.13 10.13-2.4 10.53-2.53.27-3.87-4.4-4.27-9.87-.4-5.33-.27-10.13 2.4-10.53z" fill="#fdeacf"/><path d="m1564 148.6c.93 0 2.53.13 5.07.53 2.53.4 4.13.67 4.93.93.53.13.93 0 .93-.4s-.27-.67-.67-.8c-.93-.4-.93-1.2-.67-2.67l2.4-16.4 1.6.27c.53 0 .8-.27.93-.93s-.13-.93-.67-1.07l-1.87-.27c-2-1.2-2.67-3.2-2.4-4.67s1.2-2.67 2.4-2.53c2.4.4-1.2 5.2 3.47 5.87 3.87.67 5.07-6.13-3.2-7.07-6.13-.67-7.6 3.2-8.13 7.33l-1.07-.13c-.67-.13-.8.13-.93.8s0 .93.67 1.07l1.07.13-2.4 16.4c-.13 1.47-.4 2.27-1.33 2.4-.4 0-.8.13-.8.53-.13.4.13.67.67.67z" fill="#fdeacf"/><path d="m1587.6 137.53c-.8 3.2 0 5.87 2.4 7.6-1.07.27-4.53 1.33-4.67 4.53-.13 1.73.93 2.8 2.53 3.6-1.47.4-2.8 1.07-2.93 2.4-.13 2.13 3.6 4.27 9.07 5.33 6.93 1.33 14.27.27 15.07-4.8.53-4-3.33-5.47-11.47-5.87-4.27-.13-7.47-.8-8-1.87-.27-.67.13-1.6 1.47-2.4 1.33.8 3.07 1.33 4.93 1.73 6.4 1.2 12.93-.4 14.27-5.73.8-3.33-.27-6-2.93-7.87 1.33-1.87 3.73.93 6 0 2-.67 2-3.47-.4-4.13-2.8-.8-5.2 1.07-6.13 3.33-1.47-.8-3.2-1.33-5.2-1.73-6.4-1.2-12.53.53-14 5.87zm3.2 16.8c1.87.4 3.73.53 5.47.67 4.13.27 5.33.93 5.07 2.27-.27 1.47-2.13 3.33-7.2 2.53-3.6-.67-5.07-2.13-4.67-3.73.27-.93.93-1.47 1.33-1.73zm8.4-7.6c-1.87 0-3.2-2.53-3.33-7.2-.27-4.67.53-6.93 2.67-6.93 1.73-.13 3.2 2.27 3.33 6.93s-1.2 7.47-2.67 7.2z" fill="#fdeacf"/><path d="m1612.13 145.67c-1.47 6.27 1.6 12.4 8.67 14s12.53-2.4 14-8.67-1.6-12.27-8.67-14c-7.07-1.6-12.53 2.4-14 8.67zm14.67 2.8c-.27 5.33-.93 10-3.47 10.13-2.53 0-3.33-4.8-3.2-10.27.13-5.33.93-10.13 3.47-10.13s3.33 4.8 3.2 10.27z" fill="#fdeacf"/><path d="m1645.2 165.93c6.93 1.87 12.67-2 14.4-8.13s-1.2-12.4-8.13-14.27c-7.07-1.87-12.67 2-14.4 8.13s1.2 12.4 8.13 14.27zm-.13-11.47c.4-5.33 1.2-10 3.87-10 2.53.13 3.2 4.93 2.8 10.4-.4 5.33-1.33 10-3.87 10-2.53-.13-3.2-4.93-2.8-10.4z" fill="#fdeacf"/><path d="m1667.33 172.47c2.93.93 5.2.27 6.93-1.07l-.67 1.87c-.13.53 0 .8.53.93 1.87.4 6.27 1.6 8.13 2.13.53.13.8.13.93-.27s-.13-.67-.67-.67c-.93-.53-.8-1.33-.27-2.8l7.47-22.8c.27-.53 0-.93-.67-.8-3.47.53-7.2.13-8.67-.13-.53-.13-.8 0-.93.4s.13.67.53.93c.8.4.53 1.2.13 2.67l-.53 1.73c-.4-1.33-1.33-2.53-2.93-3.33-5.6-2.93-11.73-1.2-14.4 5.87s-1.07 13.33 5.07 15.33zm2.4-11.07c1.47-4.93 3.6-8.53 5.87-8s3.2 3.33 1.87 8.27c-1.87 6.53-4 9.07-6.27 8.53-2.13-.53-2.93-3.87-1.47-8.8z" fill="#fdeacf"/><path d="m1690.27 159.4c-.13.4 0 .67.4.93.8.67.67 1.33.13 2.8l-4.27 11.2c-.53 1.33-.93 2.13-1.87 2-.53 0-.8 0-.93.4s0 .67.53.8c.8.13 2.4.67 4.8 1.6s3.87 1.6 4.67 2c.4.13.8.13.93-.27.27-.4 0-.67-.4-.93-.67-.53-.53-1.33 0-2.67l3.6-9.33c.93-2.4 2.67-4.4 4.93-3.6 2.27.8 1.87 3.47.93 6l-3.47 9.2c-.53 1.33-.93 2.13-1.87 2-.53 0-.8 0-.93.4s0 .67.53.8c.93.13 2.4.67 4.8 1.6s3.87 1.6 4.67 2c.4.13.8.13.93-.27s0-.67-.53-1.07c-.67-.53-.53-1.33 0-2.67l3.47-9.2c2.13-5.6 1.07-9.33-4.13-11.33-3.47-1.33-6-.27-7.73 1.2l.67-2.8c.13-.53 0-.93-.67-.8-3.6.27-6.8-.13-8.27-.4-.53-.13-.8 0-.93.4z" fill="#fdeacf"/><path d="m1712.8 177.4c-2.13 6 .53 12 6.4 14.53 4.67 2.13 8.27.53 9.6-.27.4-.27.53-.53.4-.8-.13-.4-.4-.4-.8-.53-5.87-.8-8.53-4.67-7.6-10.27 0-.53.13-1.07.27-1.47l11.07 4.8c.4.27.8.13 1.07-.27 1.6-2.53 2.67-9.47-5.33-12.8-6.27-2.67-12.8.67-15.07 7.07zm14.8-5.87c1.73.8 1.33 3.73.53 5.73-.8 1.87-1.33 1.73-3.73.67l-2.67-1.2c1.47-3.47 4.13-6 5.87-5.2z" fill="#fdeacf"/><path d="m1734.93 190.33c-4-1.73-7.07 5.33 2.67 10 7.33 3.47 11.07.93 12.67-1.73 3.47-6-4-9.6-6.4-14.8-.93-1.87 1.07-4.67 4-2.93 3.2 1.87-1.47 5.47 3.07 7.73 3.6 1.73 7.2-4.13-2.53-8.8-5.2-2.53-10-1.6-11.87 2.13-3.2 6.53 5.2 10.27 5.87 14.4.4 1.87-1.73 4.13-4.27 2.93-4-2 1.2-6.93-3.2-8.93z" fill="#fdeacf"/><path d="m1761.07 205.93c.27 2-1.87 4.13-4.4 2.8-4-2.13 1.47-6.93-2.93-9.07-3.87-1.87-7.2 5.07 2.27 10.13 7.2 3.87 11.07 1.47 12.67-1.2 3.73-5.87-3.6-9.87-5.73-15.07-.8-1.87 1.33-4.67 4.13-2.8 3.2 2-1.73 5.47 2.8 7.87 3.33 1.87 7.2-3.87-2-8.93-5.07-2.8-10-2.13-12 1.6-3.47 6.4 4.67 10.53 5.2 14.67z" fill="#fdeacf"/><path d="m1814.27 246.6c5.73 4.27 12.4 2.8 16.27-2.4 3.73-5.07 3.33-12-2.4-16.27s-12.4-2.67-16.27 2.4c-3.87 5.2-3.33 12 2.4 16.27zm3.87-10.67c2.27-4.8 4.8-8.93 7.33-8 2.4 1.07 1.2 5.73-1.2 10.67-2.4 4.8-4.93 8.93-7.33 8-2.4-1.07-1.2-5.73 1.2-10.67z" fill="#fdeacf"/><path d="m1838.4 238.47.8.67-10.4 12.8c-.93 1.2-1.6 1.73-2.4 1.33-.53-.27-.8-.27-1.07 0s-.13.67.27.93c.67.53 2 1.47 4 3.07s3.2 2.8 3.87 3.33c.27.4.67.4.93.13.27-.27.13-.53-.13-.93-.53-.8-.13-1.47.8-2.67l10.4-12.8 1.33 1.07c.4.4.8.27 1.2-.27.4-.53.4-.8 0-1.2l-1.47-1.2c-1.2-2-.67-4 .27-5.2.93-1.33 2.4-1.87 3.33-1.07 1.87 1.6-3.73 3.87 0 6.8 3.07 2.53 7.47-2.67 1.07-7.87-5.07-3.73-8.27-1.07-10.8 2.13l-.8-.67c-.53-.4-.8-.27-1.2.27-.4.67-.53.93 0 1.33z" fill="#fdeacf"/><path d="m1851.33 257.13c-2.4 2.27-3.07 4.93-2 7.73-.93-.27-4.4-1.2-6.27 1.47-1.07 1.47-.67 2.93.27 4.4-1.33-.4-2.93-.53-3.73.53-1.2 1.73.8 5.47 4.93 9.2 5.33 4.8 12.13 7.6 15.47 3.73 2.67-3.07 0-6.4-6.67-10.93-3.47-2.27-5.87-4.53-5.73-5.73 0-.8.8-1.33 2.4-1.33.8 1.33 1.87 2.67 3.33 4 4.8 4.4 11.2 6.4 15.2 2.53 2.53-2.4 3.07-5.33 1.73-8.27 2-.8 2.67 2.8 4.53 3.07 2.13.53 3.47-2 1.87-3.73-1.87-2-4.93-1.73-6.93-.27-.8-1.33-1.87-2.8-3.47-4.13-4.8-4.27-10.93-6.13-14.93-2.27zm-1.6 19.47c3.47 2.4 4.13 3.47 3.2 4.53-1.07 1.2-3.73 1.73-7.6-1.6-2.8-2.53-3.2-4.4-2-5.6.8-.8 1.6-.8 2.13-.8 1.33 1.2 2.93 2.4 4.27 3.47zm13.73-17.87c1.6.8 1.47 3.47-.8 7.6-2.27 4-4.8 5.6-6.13 4.8-1.6-.93-1.33-3.87.93-7.87s4.27-5.6 6-4.53z" fill="#fdeacf"/><path d="m1884.8 277.13c-5.07-5.2-12-4.53-16.53-.13-4.67 4.53-5.2 11.33-.13 16.4s12 4.67 16.53.13c4.53-4.53 5.07-11.33.13-16.4zm-5.6 9.87c-3.07 4.4-6.13 8.13-8.4 6.8-2.13-1.47-.27-5.87 2.8-10.4 3.07-4.4 6.27-8.13 8.4-6.8 2.13 1.47.27 5.87-2.8 10.4z" fill="#fdeacf"/><path d="m1886.13 295.13c-4.8 4.27-5.73 11.07-.93 16.4s11.73 5.2 16.53.93c4.8-4.13 5.73-10.93.8-16.4-4.8-5.33-11.6-5.2-16.4-.93zm10.67 10.67c-3.33 4.27-6.67 7.73-8.8 6.4-2.13-1.6 0-5.87 3.33-10.27 3.2-4.27 6.53-7.73 8.8-6.4 2.13 1.6 0 5.87-3.33 10.27z" fill="#fdeacf"/><path d="m1904.4 313.4c-6.13 4.53-8.27 10.53-4.27 15.6 2 2.4 4.13 3.07 6.4 2.93l-1.6 1.2c-.4.27-.4.67 0 1.07 1.33 1.33 4.4 4.8 5.6 6.27.4.4.67.53.93.27.27-.27.27-.53 0-1.2-.4-.93.13-1.47 1.33-2.4l7.2-5.72v-14.45c-.09-.21-.16-.42-.27-.63-3.2-5.6-9.2-7.33-15.33-2.93zm10.13 12.13c-5.07 4.53-8.27 5.47-9.87 3.73-1.47-1.6-.4-4.8 3.6-8.13s7.73-5.2 9.33-3.47c1.6 1.6.8 4.53-3.07 7.87z" fill="#fdeacf"/><path d="m1912.67 342.07c-.4-.4-.67-.53-.93-.27-.4.13-.27.53 0 .93.53.67 1.6 1.87 3.07 4 1.47 2 2.4 3.33 2.8 4.13.27.53.67.67.93.4.4-.13.27-.53.13-.93-.26-.77.24-1.41 1.33-2.17v-10.09l-4.67 3.32c-1.2.93-2 1.2-2.67.67z" fill="#fdeacf"/><path d="m79.33 256.47 16.67 3.87c4.13 1.07 8.27-4 4.8-10.93-1.2-2.4-2.67-4.53-4-6.8-2.4-4.27-2.8-7.2-2.8-10 0-.13 0-.4-.27-.4-.13 0-.27.13-.4.27-1.2 2.53-2.8 4.93-6.93 7.73-2.13 1.47-4.4 2.67-6.53 4.27-6.27 4.67-4.8 11.07-.53 12z" fill="#fdeacf"/><path d="m365.33 291.13h17.2c4.27.13 7.2-5.73 2.27-11.73-1.6-2-3.6-3.87-5.33-5.73-3.33-3.6-4.27-6.4-4.93-9.07-.13-.27-.13-.4-.4-.4s-.4.27-.4.4c-.67 2.67-1.73 5.47-5.07 9.07-1.73 1.87-3.73 3.6-5.47 5.6-5.07 6-2.13 11.87 2.13 11.87z" fill="#fdeacf"/><path d="m653.2 270.6 16.8-2.53c4.27-.67 6.27-6.93.4-12-1.87-1.73-4.13-3.2-6.13-4.8-3.73-3.07-5.2-5.73-6.27-8.27 0-.13-.13-.27-.4-.27-.13 0-.27.27-.27.4-.27 2.8-.8 5.73-3.6 9.73-1.47 2.13-3.2 4.13-4.53 6.4-4 6.67-.27 12 4 11.33z" fill="#fdeacf"/><path d="m937.47 217.13 16.53-3.33c4.27-.8 6-7.2-.13-12-2-1.6-4.27-3.07-6.4-4.53-4-2.93-5.47-5.47-6.67-8 0-.13-.13-.27-.4-.27s-.27.27-.27.4c0 2.67-.53 5.73-3.07 9.87-1.33 2.27-2.93 4.4-4.13 6.67-3.73 6.8.27 12 4.53 11.2z" fill="#fdeacf"/><path d="m1220.53 162.87 16.93-2.53c4.27-.67 6.27-6.93.4-12-2-1.73-4.27-3.2-6.27-4.8-3.73-3.07-5.2-5.73-6.27-8.27 0-.13-.13-.27-.4-.27-.13 0-.27.27-.27.4-.27 2.8-.8 5.73-3.6 9.73-1.47 2.13-3.2 4.13-4.53 6.4-4 6.67-.27 12 4 11.33z" fill="#fdeacf"/><path d="m1778.8 222.87 14.53 9.07c3.73 2.27 9.33-1.2 8.13-8.93-.4-2.53-1.07-5.07-1.6-7.6-.93-4.8-.4-7.73.53-10.4 0-.13.13-.4-.13-.53-.27-.13-.4 0-.53.13-2 1.87-4.27 3.73-9.07 5.07-2.53.67-5.07 1.2-7.6 2-7.33 2.4-8 8.93-4.27 11.2z" fill="#fdeacf"/><path d="m1506.67 143.8 17.07 1.47c4.27.4 7.73-5.2 3.2-11.6-1.47-2.13-3.33-4.13-4.93-6.13-3.07-3.87-3.87-6.8-4.27-9.47 0-.13 0-.4-.27-.4-.27-.13-.4.13-.4.27-.8 2.67-2.13 5.33-5.73 8.67-1.87 1.73-4 3.33-5.87 5.2-5.6 5.6-3.07 11.6 1.2 12z" fill="#fdeacf"/></svg>